<svg xmlns="http://www.w3.org/2000/svg" width="115" height="50" fill="none" viewBox="0 0 115 50">
    <ellipse cx="16.5" cy="25" fill="#D60A0A" rx="16.5" ry="15"/>
    <path fill="#D60A0A" d="M16 10h99v30H16V10z"/>
    <g fill="#fff" clip-path="url(#clip0)">
        <path d="M23.896 23.719c-.258 0-.468-.21-.468-.469 0-1.795-.7-3.482-1.968-4.751-.183-.183-.183-.48 0-.663.183-.183.48-.183.663 0 1.446 1.446 2.242 3.369 2.242 5.414 0 .259-.21.469-.469.469zM11.084 23.719c-.259 0-.469-.21-.469-.469 0-2.045.796-3.968 2.243-5.414.183-.183.48-.183.663 0 .183.183.183.48 0 .663-1.27 1.27-1.968 2.956-1.968 4.751 0 .259-.21.469-.469.469zM17.49 32c-1.292 0-2.343-1.051-2.343-2.344 0-.258.21-.468.468-.468.259 0 .469.21.469.468 0 .776.63 1.407 1.406 1.407.776 0 1.407-.631 1.407-1.407 0-.258.21-.468.468-.468.259 0 .469.21.469.468 0 1.293-1.051 2.344-2.344 2.344z"/>
        <path d="M22.647 30.125H12.334c-.603 0-1.094-.49-1.094-1.094 0-.32.14-.623.383-.831.95-.803 1.492-1.97 1.492-3.207V23.25c0-2.413 1.963-4.375 4.375-4.375 2.413 0 4.375 1.962 4.375 4.375v1.743c0 1.236.542 2.404 1.487 3.203.249.212.388.515.388.835 0 .603-.49 1.094-1.093 1.094zM17.49 19.812c-1.895 0-3.437 1.542-3.437 3.438v1.743c0 1.513-.663 2.941-1.819 3.918-.022.019-.056.058-.056.12 0 .085.071.157.156.157h10.313c.085 0 .156-.072.156-.157 0-.062-.035-.101-.055-.118-1.157-.979-1.82-2.407-1.82-3.92V23.25c0-1.896-1.542-3.438-3.438-3.438z"/>
        <path d="M17.49 19.813c-.258 0-.468-.21-.468-.47V17.47c0-.259.21-.469.468-.469.259 0 .469.21.469.469v1.875c0 .258-.21.468-.469.468z"/>
    </g>
    <path fill="#fff" d="M44.09 30l-1.244-3.179h-4.005L37.61 30h-1.176l3.951-10.035h.978L45.293 30H44.09zm-1.606-4.225l-1.162-3.096c-.15-.392-.305-.873-.465-1.443-.1.438-.244.919-.43 1.443l-1.176 3.096h3.233zm6.853 3.425c.2 0 .394-.014.58-.04.188-.033.336-.065.445-.096v.868c-.123.059-.305.107-.547.143-.237.041-.451.062-.642.062-1.45 0-2.174-.764-2.174-2.29V23.39h-1.074v-.547L47 22.37l.478-1.6h.657v1.737h2.173v.882h-2.173v4.409c0 .451.107.797.32 1.039.215.241.509.362.883.362zm5.369 0c.2 0 .394-.014.581-.04.187-.033.335-.065.444-.096v.868c-.123.059-.305.107-.547.143-.237.041-.45.062-.642.062-1.45 0-2.174-.764-2.174-2.29V23.39h-1.073v-.547l1.073-.472.478-1.6h.657v1.737h2.174v.882h-2.174v4.409c0 .451.107.797.321 1.039.214.241.508.362.882.362zm6.114.937c-1.107 0-1.982-.338-2.625-1.012-.638-.674-.957-1.611-.957-2.81 0-1.207.296-2.167.889-2.878.597-.71 1.397-1.066 2.4-1.066.938 0 1.68.31 2.228.93.547.615.82 1.429.82 2.44v.718h-5.161c.023.88.244 1.547.663 2.003.424.456 1.019.683 1.784.683.807 0 1.604-.168 2.393-.505v1.011c-.401.174-.782.297-1.142.37-.355.077-.786.116-1.292.116zm-.307-6.816c-.602 0-1.083.196-1.443.588-.355.392-.565.934-.629 1.627h3.917c0-.715-.16-1.262-.478-1.64-.32-.383-.775-.575-1.367-.575zM71.063 30v-4.847c0-.61-.139-1.066-.416-1.367-.279-.3-.714-.451-1.306-.451-.784 0-1.358.212-1.723.636-.364.424-.547 1.123-.547 2.098V30h-1.135v-7.492h.923l.185 1.025h.055c.232-.369.558-.654.977-.854.42-.205.887-.308 1.402-.308.902 0 1.58.219 2.037.656.455.433.683 1.128.683 2.085V30h-1.134zm6.313-.8c.2 0 .394-.014.581-.04.187-.033.335-.065.444-.096v.868c-.123.059-.305.107-.546.143-.237.041-.452.062-.643.062-1.45 0-2.174-.764-2.174-2.29V23.39h-1.073v-.547l1.073-.472.479-1.6h.656v1.737h2.174v.882h-2.174v4.409c0 .451.107.797.321 1.039.214.241.508.362.882.362zm4.084.8h-1.135v-7.492h1.135V30zm-1.23-9.523c0-.26.063-.448.191-.567.128-.123.287-.184.479-.184.182 0 .34.061.471.184.132.123.199.312.199.567 0 .256-.067.447-.199.575-.132.123-.29.184-.471.184-.192 0-.351-.061-.479-.184-.128-.128-.191-.32-.191-.575zm10.523 5.77c0 1.221-.308 2.176-.923 2.864-.615.684-1.465 1.026-2.55 1.026-.67 0-1.264-.157-1.784-.472-.52-.314-.92-.766-1.203-1.354-.282-.587-.424-1.276-.424-2.064 0-1.221.306-2.171.916-2.85.611-.684 1.459-1.026 2.543-1.026 1.048 0 1.88.349 2.495 1.046.62.697.93 1.64.93 2.83zm-5.708 0c0 .957.192 1.686.574 2.188.383.5.946.752 1.689.752.743 0 1.305-.249 1.688-.746.388-.5.581-1.232.581-2.194 0-.952-.193-1.675-.58-2.167-.383-.497-.95-.745-1.703-.745-.743 0-1.303.244-1.681.731-.379.488-.568 1.215-.568 2.181zM98.296 30v-4.847c0-.61-.139-1.066-.417-1.367-.278-.3-.713-.451-1.305-.451-.784 0-1.358.212-1.723.636-.365.424-.547 1.123-.547 2.098V30h-1.135v-7.492h.923l.185 1.025h.054c.233-.369.559-.654.978-.854.42-.205.886-.308 1.401-.308.903 0 1.582.219 2.037.656.456.433.684 1.128.684 2.085V30h-1.135z"/>
    <defs>
        <clipPath id="clip0">
            <path fill="#fff" d="M0 0H15V15H0z" transform="translate(10 17)"/>
        </clipPath>
    </defs>
</svg>
