<?xml version="1.0" encoding="utf-8"?>
<!-- Generator: Adobe Illustrator 21.1.0, SVG Export Plug-In . SVG Version: 6.00 Build 0)  -->
<svg version="1.1" id="Isolation_Mode" xmlns="http://www.w3.org/2000/svg" xmlns:xlink="http://www.w3.org/1999/xlink" x="0px"
	 y="0px" viewBox="0 0 237 263.5" style="enable-background:new 0 0 237 263.5;" xml:space="preserve">
<style type="text/css">
	.st0{fill:#02A0C0;}
	.st1{fill:none;stroke:#000000;stroke-width:20;stroke-linecap:round;stroke-linejoin:round;stroke-miterlimit:10;}
	.st2{fill:#02A0C0;stroke:#02A0C0;stroke-width:10;stroke-linecap:round;stroke-linejoin:round;stroke-miterlimit:10;}
</style>
<g>
	<path class="st0" d="M190.9,263.5H46.1C20.7,263.5,0,242.8,0,217.4V76.7c0-25.4,20.7-46.1,46.1-46.1h144.9
		c25.4,0,46.1,20.7,46.1,46.1v140.8C237,242.8,216.3,263.5,190.9,263.5z M46.1,50.6C31.7,50.6,20,62.3,20,76.7v140.8
		c0,14.4,11.7,26.1,26.1,26.1h144.9c14.4,0,26.1-11.7,26.1-26.1V76.7c0-14.4-11.7-26.1-26.1-26.1H46.1z"/>
	<path class="st0" d="M167.6,74c-5.5,0-10-4.5-10-10V10c0-5.5,4.5-10,10-10s10,4.5,10,10v54C177.6,69.5,173.1,74,167.6,74z"/>
	<path class="st0" d="M70.4,74c-5.5,0-10-4.5-10-10V10c0-5.5,4.5-10,10-10s10,4.5,10,10v54C80.4,69.5,75.9,74,70.4,74z"/>
	<path class="st1" d="M10,108"/>
	<g>
		<path class="st2" d="M126.2,123.1h-16.7c-1.8,0-3.3-1.5-3.3-3.3v-16.7c0-1.8,1.5-3.3,3.3-3.3h16.7c1.8,0,3.3,1.5,3.3,3.3v16.7
			C129.5,121.6,128.1,123.1,126.2,123.1z"/>
		<path class="st2" d="M169.2,123.1h-16.7c-1.8,0-3.3-1.5-3.3-3.3v-16.7c0-1.8,1.5-3.3,3.3-3.3h16.7c1.8,0,3.3,1.5,3.3,3.3v16.7
			C172.5,121.6,171,123.1,169.2,123.1z"/>
		<path class="st2" d="M126.2,166.1h-16.7c-1.8,0-3.3-1.5-3.3-3.3v-16.7c0-1.8,1.5-3.3,3.3-3.3h16.7c1.8,0,3.3,1.5,3.3,3.3v16.7
			C129.5,164.6,128.1,166.1,126.2,166.1z"/>
		<path class="st2" d="M84.5,166.1H67.8c-1.8,0-3.3-1.5-3.3-3.3v-16.7c0-1.8,1.5-3.3,3.3-3.3h16.7c1.8,0,3.3,1.5,3.3,3.3v16.7
			C87.8,164.6,86.3,166.1,84.5,166.1z"/>
		<path class="st2" d="M126.2,208.3h-16.7c-1.8,0-3.3-1.5-3.3-3.3v-16.7c0-1.8,1.5-3.3,3.3-3.3h16.7c1.8,0,3.3,1.5,3.3,3.3V205
			C129.5,206.8,128.1,208.3,126.2,208.3z"/>
		<path class="st2" d="M84.5,208.3H67.8c-1.8,0-3.3-1.5-3.3-3.3v-16.7c0-1.8,1.5-3.3,3.3-3.3h16.7c1.8,0,3.3,1.5,3.3,3.3V205
			C87.8,206.8,86.3,208.3,84.5,208.3z"/>
		<path class="st2" d="M169.2,166.1h-16.7c-1.8,0-3.3-1.5-3.3-3.3v-16.7c0-1.8,1.5-3.3,3.3-3.3h16.7c1.8,0,3.3,1.5,3.3,3.3v16.7
			C172.5,164.6,171,166.1,169.2,166.1z"/>
	</g>
</g>
</svg>
