<svg xmlns="http://www.w3.org/2000/svg" width="30" height="25" fill="none" viewBox="0 0 30 25">
    <path fill="#666" d="M28.225 11.104l-.639-2.544c.173-.038.303-.191.303-.374v-.412c0-.893-.725-1.618-1.617-1.618h-2.899v-.844c0-.437-.355-.797-.796-.797H2.437c-.436 0-.796.355-.796.797v10.283c0 .211.173.384.384.384.211 0 .384-.173.384-.384V5.307c0-.014.01-.024.024-.024h20.144c.014 0 .024.01.024.024v6.977c0 .211.172.384.384.384.21 0 .384-.173.384-.384v-.437h4.539c.556 0 1.031.365 1.195.874h-1.195c-.211 0-.384.172-.384.384v.82c0 .667.542 1.205 1.204 1.205h.437v1.693h-1.008c-.33-.954-1.238-1.64-2.303-1.64s-1.972.686-2.303 1.64h-.187v-4.817c0-.211-.173-.384-.384-.384-.211 0-.384.173-.384.384v4.817H9.251c-.33-.954-1.238-1.64-2.303-1.64s-1.972.686-2.303 1.64H2.438c-.015 0-.024-.01-.024-.024v-.844h1.665c.21 0 .384-.173.384-.384 0-.211-.173-.384-.384-.384H.384c-.211 0-.384.173-.384.384 0 .211.173.384.384.384H1.64v.844c0 .437.355.797.797.797h2.077v.024c0 1.344 1.094 2.438 2.438 2.438s2.438-1.094 2.438-2.438v-.024h14.045v.024c0 1.344 1.094 2.438 2.437 2.438 1.344 0 2.438-1.094 2.438-2.438v-.024h1.247c.212 0 .384-.173.384-.384V13.11c0-1.017-.748-1.861-1.717-2.005zm-4.847-4.18h2.898c.466 0 .845.38.845.845v.024h-3.743v-.869zm0 4.156V8.565h3.417l.628 2.515h-4.045zm-16.43 8.205c-.921 0-1.665-.748-1.665-1.665s.749-1.665 1.665-1.665c.917 0 1.665.748 1.665 1.665 0 .916-.744 1.665-1.665 1.665zm18.916 0c-.922 0-1.665-.748-1.665-1.665s.748-1.665 1.665-1.665c.921 0 1.665.748 1.665 1.665 0 .916-.744 1.665-1.665 1.665zm3.31-4.923h-.436c-.24 0-.437-.197-.437-.437v-.437h.874v.874z"/>
    <path fill="#666" d="M6.948 16.823c-.437 0-.797.356-.797.797 0 .441.355.797.797.797.437 0 .796-.356.796-.797 0-.441-.355-.797-.796-.797zM25.864 16.823c-.437 0-.797.356-.797.797 0 .441.355.797.797.797.441 0 .796-.356.796-.797 0-.441-.355-.797-.796-.797zM15.73 8.32c-.15-.148-.394-.148-.543 0l-3.421 3.422-1.78-1.78c-.149-.15-.394-.15-.542 0-.15.148-.15.393 0 .542l2.053 2.054c.077.076.173.11.274.11.1 0 .197-.038.273-.11l3.695-3.695c.14-.149.14-.394-.01-.542zM21.142 15.182H10.461c-.211 0-.384.173-.384.384 0 .211.173.384.384.384h10.681c.212 0 .384-.173.384-.384 0-.21-.172-.384-.384-.384z"/>
</svg>
