<svg xmlns="http://www.w3.org/2000/svg" width="15" height="11" fill="none" viewBox="0 0 15 11">
    <path fill="#fff" d="M.947 6.05h9.994L8.27 8.643c-.369.358-.369.939 0 1.297.369.357.967.357 1.335 0l4.284-4.159c.044-.042.084-.09.118-.14.014-.02.024-.043.036-.064.018-.03.037-.06.051-.094.011-.026.018-.054.026-.082.01-.03.021-.058.028-.089.01-.047.012-.094.014-.142 0-.012.004-.024.004-.037 0-.014-.004-.027-.004-.041-.002-.046-.005-.092-.015-.137-.006-.033-.018-.063-.028-.095-.009-.025-.014-.051-.025-.076-.015-.036-.035-.069-.055-.102l-.031-.056c-.035-.051-.075-.099-.12-.142L9.604.327C9.42.148 9.178.06 8.937.06c-.242 0-.484.09-.668.268-.369.358-.369.938 0 1.296l2.672 2.594H.947c-.522 0-.944.41-.944.916s.422.917.944.917z"/>
</svg>
