<svg xmlns="http://www.w3.org/2000/svg" width="20" height="20" fill="none" viewBox="0 0 20 20">
    <g clip-path="url(#clip0)">
        <path fill="#666" d="M7.448.656l1.988 1.989L2.75 6.258.78 4.27 7.448.656zM.155 3.941c-.082.043-.137.125-.148.215-.012.09.015.184.082.25l2.195 2.215-2.2 2.211c-.066.066-.093.156-.081.25.011.09.07.172.148.215l2.246 1.219V15.844c0 .004 0 .011.004.015 0 .008.004.012.004.02 0 .004 0 .004.004.008 0 .008.004.011.008.02 0 .003 0 .003.004.007s.004.012.007.016c0 .004.004.008.004.011.004.004.004.008.008.012s.004.008.008.012.004.008.008.008c.004.003.008.007.011.015l.008.008c.004.004.008.008.012.016l.008.008.012.011c.003.004.007.008.015.012l.008.008c.008.004.016.012.027.015l7.223 3.907c.012.004.02.011.031.015.004 0 .004 0 .008.004.008.004.016.004.023.008.004 0 .008 0 .008.004.008 0 .016.004.024.004h.008c.011 0 .023.004.035.004.011 0 .023 0 .035-.004h.008c.007 0 .015-.004.023-.004.004 0 .008 0 .008-.004.008-.004.016-.004.023-.008.004 0 .004 0 .008-.004.012-.004.024-.008.031-.015l7.223-3.907c.008-.003.02-.011.027-.015l.008-.008c.004-.004.008-.008.016-.012l.012-.011.007-.008c.004-.004.008-.008.012-.016l.008-.008c.004-.004.008-.008.012-.015.003-.004.003-.008.007-.008.004-.004.004-.008.008-.012s.004-.008.008-.012c0-.004.004-.007.004-.011.004-.004.004-.012.008-.016 0-.004.004-.004.004-.008.004-.008.004-.011.007-.02 0-.003 0-.003.004-.007 0-.008.004-.012.004-.02 0-.004 0-.011.004-.015v-.012-5.321l2.25-1.214c.082-.043.137-.125.153-.215.011-.09-.016-.184-.082-.25l-2.196-2.21 2.195-2.212c.067-.066.094-.156.083-.25-.012-.09-.07-.172-.149-.215L12.48.035c-.114-.062-.255-.043-.348.05L9.92 2.298 7.71.086C7.655.03 7.58 0 7.503 0c-.047 0-.098.012-.141.035L.155 3.941zM12.393.656l6.672 3.617-1.969 1.985-6.691-3.617L12.393.656zm-9.562 9.426L.776 8.969l1.969-1.985 6.687 3.614-1.988 1.988-4.613-2.504c.004 0 .004 0 0 0zm6.797 9.133l-6.641-3.59v-4.793l4.375 2.371c.043.024.094.035.14.035.075 0 .153-.031.208-.086l1.918-1.918v7.98zm.293-9.024L3.31 6.617l6.61-3.57L16.53 6.62l-6.61 3.57zm6.933.641v4.793l-6.64 3.59V11.23l1.918 1.918c.054.055.128.086.207.086.046 0 .097-.011.14-.035l4.375-2.367zm-4.46 1.75l-1.989-1.988 6.688-3.614L19.06 8.97l-2.05 1.11s-.005 0-.005.003"/>
    </g>
    <defs>
        <clipPath id="clip0">
            <path fill="#fff" d="M0 0H20V20H0z"/>
        </clipPath>
    </defs>
</svg>
