<svg xmlns="http://www.w3.org/2000/svg" width="20" height="20" fill="none" viewBox="0 0 20 20">
    <path fill="#666" d="M17.188 2.5h-1.563v-.625c0-.332-.132-.65-.366-.884-.235-.234-.553-.366-.884-.366-.332 0-.65.132-.884.366-.234.235-.366.552-.366.884V2.5h-2.5v-.625c0-.332-.132-.65-.366-.884-.235-.234-.552-.366-.884-.366-.332 0-.65.132-.884.366-.234.235-.366.552-.366.884V2.5h-2.5v-.625c0-.332-.132-.65-.366-.884-.235-.234-.552-.366-.884-.366-.332 0-.65.132-.884.366-.234.235-.366.552-.366.884V2.5H1.562c-.414 0-.811.165-1.104.458C.165 3.25 0 3.648 0 4.062v12.5c0 .415.165.812.458 1.105.293.293.69.458 1.105.458h8.75c.082 0 .162-.033.22-.091.06-.06.092-.139.092-.221 0-.083-.033-.163-.091-.221-.06-.06-.139-.092-.222-.092h-8.75c-.248 0-.486-.1-.662-.275-.175-.176-.274-.414-.275-.663V6.876h17.5v5.313c0 .082.033.162.091.22.06.06.139.092.221.092.083 0 .163-.033.221-.091.06-.06.092-.139.092-.222V4.063c0-.415-.165-.812-.458-1.105-.293-.293-.69-.458-1.105-.458zm-3.438-.625c0-.166.066-.325.183-.442.117-.117.276-.183.442-.183.166 0 .325.066.442.183.117.117.183.276.183.442V3.75c0 .166-.066.325-.183.442-.117.117-.276.183-.442.183-.166 0-.325-.066-.442-.183-.117-.117-.183-.276-.183-.442V1.875zm-5 0c0-.166.066-.325.183-.442.117-.117.276-.183.442-.183.166 0 .325.066.442.183.117.117.183.276.183.442V3.75c0 .166-.066.325-.183.442-.117.117-.276.183-.442.183-.166 0-.325-.066-.442-.183-.117-.117-.183-.276-.183-.442V1.875zm-5 0c0-.166.066-.325.183-.442.117-.117.276-.183.442-.183.166 0 .325.066.442.183.117.117.183.276.183.442V3.75c0 .166-.066.325-.183.442-.117.117-.276.183-.442.183-.166 0-.325-.066-.442-.183-.117-.117-.183-.276-.183-.442V1.875zM18.125 6.25H.625V4.062c0-.248.1-.486.275-.662.176-.175.414-.274.662-.275h1.563v.625c0 .332.132.65.366.884.235.234.552.366.884.366.332 0 .65-.132.884-.366.234-.235.366-.552.366-.884v-.625h2.5v.625c0 .332.132.65.366.884.235.234.552.366.884.366.332 0 .65-.132.884-.366.234-.235.366-.552.366-.884v-.625h2.5v.625c0 .332.132.65.366.884.235.234.553.366.884.366.332 0 .65-.132.884-.366.234-.235.366-.552.366-.884v-.625h1.563c.248 0 .486.1.662.275.175.176.274.414.275.663V6.25z"/>
    <path fill="#666" d="M8.75 9.063c0-.166-.066-.325-.183-.442-.117-.118-.276-.184-.442-.184h-1.25c-.166 0-.325.066-.442.184-.117.117-.183.276-.183.441V10c0 .166.066.325.183.442.117.117.276.183.442.183h1.25c.166 0 .325-.066.442-.183.117-.117.183-.276.183-.442v-.938zM6.875 10v-.938h1.25V10h-1.25zM5 9.063c0-.166-.066-.325-.183-.442-.117-.118-.276-.184-.442-.184h-1.25c-.166 0-.325.066-.442.184-.117.117-.183.276-.183.441V10c0 .166.066.325.183.442.117.117.276.183.442.183h1.25c.166 0 .325-.066.442-.183.117-.117.183-.276.183-.442v-.938zM3.125 10v-.938h1.25V10h-1.25zM15.625 10.625c.166 0 .325-.066.442-.183.117-.117.183-.276.183-.442v-.938c0-.165-.066-.324-.183-.441-.117-.118-.276-.184-.442-.184h-1.25c-.166 0-.325.066-.442.184-.117.117-.183.276-.183.441V10c0 .166.066.325.183.442.117.117.276.183.442.183h1.25zm-1.25-1.563h1.25V10h-1.25v-.938zM8.75 11.875c0-.166-.066-.325-.183-.442-.117-.117-.276-.183-.442-.183h-1.25c-.166 0-.325.066-.442.183-.117.117-.183.276-.183.442v.938c0 .165.066.324.183.441.117.118.276.184.442.184h1.25c.166 0 .325-.066.442-.184.117-.117.183-.276.183-.441v-.938zm-1.875.938v-.938h1.25v.938h-1.25zM5 11.875c0-.166-.066-.325-.183-.442-.117-.117-.276-.183-.442-.183h-1.25c-.166 0-.325.066-.442.183-.117.117-.183.276-.183.442v.938c0 .165.066.324.183.441.117.118.276.184.442.184h1.25c.166 0 .325-.066.442-.184.117-.117.183-.276.183-.441v-.938zm-1.875.938v-.938h1.25v.938h-1.25zM8.125 14.063h-1.25c-.166 0-.325.065-.442.183-.117.117-.183.276-.183.441v.938c0 .166.066.325.183.442.117.117.276.183.442.183h1.25c.166 0 .325-.066.442-.183.117-.117.183-.276.183-.442v-.938c0-.165-.066-.324-.183-.441-.117-.118-.276-.184-.442-.184zm-1.25 1.562v-.938h1.25v.938h-1.25zM10.625 10.625h1.25c.166 0 .325-.066.442-.183.117-.117.183-.276.183-.442v-.938c0-.165-.066-.324-.183-.441-.117-.118-.276-.184-.442-.184h-1.25c-.166 0-.325.066-.442.184-.117.117-.183.276-.183.441V10c0 .166.066.325.183.442.117.117.276.183.442.183zm0-1.563h1.25V10h-1.25v-.938zM10 12.813c0 .165.066.324.183.441.117.118.276.184.442.184.083 0 .162-.033.221-.092s.091-.138.091-.221c0-.083-.032-.162-.091-.221s-.138-.091-.221-.091v-.938h1.25c.083 0 .162-.033.221-.091.059-.06.091-.139.091-.222 0-.082-.032-.162-.091-.22-.059-.06-.138-.092-.221-.092h-1.25c-.166 0-.325.066-.442.183-.117.117-.183.276-.183.442v.938zM4.375 14.063h-1.25c-.166 0-.325.065-.442.183-.117.117-.183.276-.183.441v.938c0 .166.066.325.183.442.117.117.276.183.442.183h1.25c.166 0 .325-.066.442-.183.117-.117.183-.276.183-.442v-.938c0-.165-.066-.324-.183-.441-.117-.118-.276-.184-.442-.184zm-1.25 1.562v-.938h1.25v.938h-1.25zM14.688 11.25c-.804 0-1.59.238-2.258.685-.668.446-1.188 1.08-1.496 1.823-.307.742-.388 1.559-.23 2.347.156.788.543 1.512 1.11 2.08.569.568 1.293.955 2.08 1.112.789.157 1.606.076 2.348-.231.742-.308 1.377-.828 1.823-1.496.447-.669.685-1.454.685-2.258-.001-1.077-.43-2.11-1.191-2.87-.762-.762-1.794-1.19-2.872-1.192zm0 7.5c-.68 0-1.345-.202-1.91-.58-.566-.377-1.006-.914-1.266-1.542s-.329-1.32-.196-1.986c.133-.667.46-1.28.94-1.76.482-.48 1.094-.808 1.76-.941.668-.133 1.359-.065 1.987.196.628.26 1.165.7 1.543 1.266.377.565.579 1.23.579 1.91-.001.91-.364 1.785-1.008 2.429-.644.644-1.518 1.007-2.43 1.008z"/>
    <path fill="#666" d="M16.493 14.002l-2.431 2.431-1.105-1.105c-.059-.057-.138-.088-.22-.088-.081.001-.16.034-.218.092-.058.058-.09.136-.091.218-.001.082.03.161.087.22l1.326 1.326c.059.059.138.091.221.091.083 0 .162-.032.221-.091l2.652-2.652c.056-.059.088-.138.087-.22 0-.081-.033-.16-.091-.218-.058-.058-.137-.09-.219-.091-.081 0-.16.03-.22.088z"/>
</svg>
