<?xml version="1.0" encoding="utf-8"?>
<!-- Generator: Adobe Illustrator 21.1.0, SVG Export Plug-In . SVG Version: 6.00 Build 0)  -->
<svg version="1.1" id="Layer_1" xmlns="http://www.w3.org/2000/svg" xmlns:xlink="http://www.w3.org/1999/xlink" x="0px" y="0px"
	 viewBox="0 0 200 200" style="enable-background:new 0 0 200 200;" xml:space="preserve">
<style type="text/css">
	.st0{fill:#404040;}
</style>
<g>
	<path class="st0" d="M126.7,80.1H115V80c0-5.3-4.3-9.7-9.7-9.7H94.5c-5.3,0-9.7,4.3-9.7,9.7v0.1H73.3c-5.3,0-9.7,4.3-9.7,9.7V120
		c0,5.3,4.3,9.7,9.7,9.7h53.5c5.3,0,9.7-4.3,9.7-9.7V89.8C136.4,84.4,132.1,80.1,126.7,80.1z M89.6,80c0-2.7,2.2-4.8,4.8-4.8h10.8
		c2.7,0,4.8,2.2,4.8,4.8v0.1L89.6,80L89.6,80z M131.6,120c0,2.7-2.2,4.8-4.8,4.8H73.3c-2.7,0-4.8-2.2-4.8-4.8V89.8
		c0-2.7,2.2-4.8,4.8-4.8h53.5c2.7,0,4.8,2.2,4.8,4.8V120z"/>
	<path class="st0" d="M100,91.2c-7.5,0-13.6,6.1-13.6,13.6c0,7.5,6.1,13.6,13.6,13.6s13.6-6.1,13.6-13.6
		C113.6,97.4,107.5,91.2,100,91.2z M100,113.7c-4.8,0-8.8-3.9-8.8-8.8c0-4.8,3.9-8.8,8.8-8.8c4.8,0,8.8,3.9,8.8,8.8
		C108.8,109.7,104.8,113.7,100,113.7z"/>
</g>
</svg>
