<?xml version="1.0" encoding="utf-8"?>
<!-- Generator: Adobe Illustrator 21.1.0, SVG Export Plug-In . SVG Version: 6.00 Build 0)  -->
<svg version="1.1" id="Layer_1" xmlns="http://www.w3.org/2000/svg" xmlns:xlink="http://www.w3.org/1999/xlink" x="0px" y="0px"
	 viewBox="0 0 200 200" style="enable-background:new 0 0 200 200;" xml:space="preserve">
<style type="text/css">
	.st0{fill:#414141;}
</style>
<g>
	<path class="st0" d="M106.4,124.2l-4,3.7V82.1c0-1.3-1.1-2.4-2.4-2.4s-2.4,1.1-2.4,2.4v45.9l-4-3.7c-1-0.9-2.5-0.9-3.4,0.1
		c-0.9,1-0.9,2.5,0.1,3.4l8,7.6c0.5,0.4,1.1,0.7,1.7,0.7s1.2-0.2,1.7-0.7l8-7.6c1-0.9,1-2.4,0.1-3.4
		C108.9,123.4,107.4,123.3,106.4,124.2z"/>
	<path class="st0" d="M133.5,64h-67c-1.3,0-2.4,1.1-2.4,2.4s1.1,2.4,2.4,2.4h67c1.3,0,2.4-1.1,2.4-2.4S134.9,64,133.5,64z"/>
</g>
</svg>
