<?xml version="1.0" encoding="utf-8"?>
<!-- Generator: Adobe Illustrator 21.1.0, SVG Export Plug-In . SVG Version: 6.00 Build 0)  -->
<svg version="1.1" id="Layer_1" xmlns="http://www.w3.org/2000/svg" xmlns:xlink="http://www.w3.org/1999/xlink" x="0px" y="0px"
	 viewBox="0 0 200 200" style="enable-background:new 0 0 200 200;" xml:space="preserve">
<style type="text/css">
	.st0{fill:#404040;}
</style>
<g>
	<path class="st0" d="M144.7,115.2c-2.8-4.9-6.2-7.5-9.8-7.5h-14.3c-3.1-3.4-6.7-5.3-10.3-5.3h-20c-3.6,0-7.2,1.9-10.3,5.3
		c-0.2,0-0.3,0-0.5,0H65.1c-3.5,0-7,2.7-9.8,7.5c-2.1,3.6-3.5,8.1-3.5,10.9v7.6c0,1.3,1.1,2.4,2.4,2.4h20.9h15.1h19.4h15.6h20.4
		c1.3,0,2.4-1.1,2.4-2.4v-7.6C148.2,123.3,146.7,118.8,144.7,115.2z M56.7,126.1c0-3.9,4.5-13.6,8.4-13.6h11.3
		c-2.3,3.9-3.7,8.2-3.7,11.4v7.3H56.7V126.1z M112.1,131.2H87.9H77.6v-7.3c0-2.3,1.3-6.5,4-10.5c2.7-3.9,5.8-6.2,8.7-6.2h20
		c2.8,0,6,2.3,8.7,6.2c2.7,4,4,8.3,4,10.5v7.3H112.1z M143.3,131.2h-15.5v-7.3c0-3.2-1.4-7.5-3.7-11.4h10.8c3.9,0,8.4,9.6,8.4,13.6
		V131.2z"/>
	<path class="st0" d="M73.6,104.9c0,0,0.1,0,0.1,0c7.3-0.1,13.3-5.8,13.6-13.1c0.3,0.4,0.6,0.7,1,1.1c3.2,3.1,7.4,4.9,11.9,4.9
		c0,0,0.1,0,0.1,0c4.5,0,8.8-1.8,11.9-5c0.1-0.1,0.2-0.3,0.4-0.4c0.3,3.3,1.7,6.3,4,8.6c2.6,2.6,6,4,9.7,4c0,0,0.1,0,0.1,0
		c7.6-0.1,13.7-6.3,13.7-13.9c0-3.7-1.5-7.1-4.1-9.7c-2.6-2.6-6-4-9.7-4c0,0-0.1,0-0.1,0c-3.5,0-6.7,1.4-9.1,3.6c0-0.1,0-0.1,0-0.2
		c0-4.5-1.8-8.8-5-11.9c-3.2-3.2-7.5-4.9-12-4.9c-4.5,0-8.8,1.8-11.9,5c-3.2,3.2-4.9,7.5-4.9,12c0,0.1,0,0.3,0,0.4c0,0,0,0,0,0
		c-2.6-2.6-6-4-9.7-4c0,0-0.1,0-0.1,0c-7.6,0.1-13.7,6.3-13.7,13.9c0,3.7,1.5,7.1,4.1,9.7C66.5,103.5,70,104.9,73.6,104.9z
		 M126.3,82.2C126.3,82.2,126.4,82.2,126.3,82.2c2.4,0,4.7,0.9,6.3,2.6c1.7,1.7,2.6,3.9,2.7,6.3c0,4.9-3.9,9-8.9,9
		c-2.4,0-4.6-0.9-6.3-2.6c-1.7-1.7-2.6-3.9-2.7-6.3C117.4,86.3,121.4,82.2,126.3,82.2z M91.6,72.4c2.3-2.3,5.3-3.6,8.5-3.6
		c0,0,0.1,0,0.1,0c3.2,0,6.2,1.2,8.5,3.5c2.3,2.3,3.6,5.3,3.6,8.5c0,0,0,0,0,0c0,3.2-1.2,6.3-3.5,8.6c-2.3,2.3-5.3,3.6-8.5,3.6
		c-3.2,0-6.3-1.2-8.6-3.5c-2.3-2.3-3.6-5.3-3.6-8.5C88.1,77.7,89.4,74.7,91.6,72.4z M73.6,82.2C73.6,82.2,73.6,82.2,73.6,82.2
		c2.4,0,4.7,0.9,6.3,2.6c1.7,1.7,2.6,3.9,2.7,6.3c0,4.9-3.9,9-8.9,9c-2.4,0-4.6-0.9-6.3-2.6c-1.7-1.7-2.6-3.9-2.7-6.3
		C64.6,86.3,68.6,82.2,73.6,82.2z"/>
	<polygon class="st0" points="117.2,80.7 117.2,80.7 117.2,80.7 	"/>
</g>
</svg>
