<?xml version="1.0" encoding="utf-8"?>
<!-- Generator: Adobe Illustrator 21.1.0, SVG Export Plug-In . SVG Version: 6.00 Build 0)  -->
<svg version="1.1" id="Layer_1" xmlns="http://www.w3.org/2000/svg" xmlns:xlink="http://www.w3.org/1999/xlink" x="0px" y="0px"
	 viewBox="0 0 200 200" style="enable-background:new 0 0 200 200;" xml:space="preserve">
<style type="text/css">
	.st0{fill:#404040;}
</style>
<g id="Wag_Logo_Type_2_">
	<g>
		<g>
			<path class="st0" d="M62.5,105c4.8,0.9,8.3-3.7,10.5-7.7c0.9-1.6,2.3-5.8,0.7-7.4c-1.4-1.5-2.5,0.5-3.3,1.2l0.6,0.8
				c1.3,1.6,0.2,4.7-0.6,6.3c-1.1,2-3.3,5.1-5.8,4.6c-0.5-0.1-1-0.7-1.2-1.2c1.3-1.3,2.9-3.7,3.8-5.2c0.8-1.3,2.1-3.7,0.9-4.7
				c-1-0.7-3,0.3-4.1,1.2c-0.7,0.6-1.1,1.1-1.6,1.8c-1.4,1.9-2.7,5.1-2.6,7.5c-0.7,0.5-1.4,1-2.3,0.7c-0.9-0.2-1-1-1.2-1.5
				c-0.6-3.6,3-8.1,5-10.7c0,0-1.6,0.4-2.7,0.5c-2.7,0.1-4.6-1.1-6.1,0.7c-0.4,0.6-0.7,1.3-0.8,2.1c0.6-0.5,1.5-0.4,2.3-0.3
				c1.4,0.1,2.2,0.3,3.5,0c-1.2,1.6-3.1,4.9-3.4,6.9c-0.2,1.3-0.2,3.4,1,4.4c1.9,1.3,3.8,0.4,5.4-0.8
				C61.2,104.4,61.8,104.9,62.5,105z M65.7,93.9c0.5-0.2,0.4,0.5,0.4,0.5c-0.1,0.8-0.7,1.9-1.1,2.6c-0.4,0.8-2,2.7-2.7,3.1
				c0-1.1,1.2-3.6,1.9-4.5C64.4,95,65.2,94.1,65.7,93.9z"/>
		</g>
		<g>
			<path class="st0" d="M141.7,96.1L141.7,96.1c-0.3,0.3-1.2,1.3-1.4,1.6c0,0-0.1,0.1-0.1,0.1c-2.4,2.4-4.3,3.8-5.3,4.1
				c-0.7,0.2-1.1,0.2-1.4-0.5c0,0,0,0,0,0c0,0,0-0.3,0-0.3c0-0.9,1.1-2.8,2.7-4.1c0.6-0.5,0.6-0.7,0.7-0.8c-0.2-0.3-0.3-0.5-0.6-0.6
				c-0.4,0-1.1,0.4-1.5,0.7c-0.3,0.2-1.2,1-2.1,1.8c-0.8,0.7-1.5,1.4-2,1.8c0,0-0.6,0.5-0.7,0.6c0-0.1,0-0.4,0-0.4
				c0-0.5,0.5-1.2,1.2-2.2c0.2-0.4,0.9-1.4,0.9-1.6l0,0l0,0c-0.2-0.3-0.6-0.6-0.9-0.6c0,0-0.3,0.2-0.3,0.2c-0.5,0.4-1.6,1.4-2.7,2.3
				c-1,0.9-1.9,1.7-2.1,1.9c-1.8,1.3-3.3,2.2-4.8,2.7c-0.3,0.1-1.2,0.3-1.7-0.2c0,0-0.1-0.1-0.2-0.2c0.1,0,0.2-0.1,0.2-0.1
				c1.3-0.6,3-1.3,4.2-2.4c0,0,1.9-1.6,1.9-3.2c0-0.1,0-0.1,0-0.2c-0.1-0.6-0.6-0.7-1.3-0.8c-2.2,0-4.2,1.4-5.3,2.6l-0.2,0.2
				c-0.5,0.5-1.9,2.1-2.5,3.5c0,0,0,0.1,0,0.1c0,0-0.1,0-0.1,0c-1,0.4-2.1,0.8-3.3,1c-0.7,0.1-1.6,0.1-2.1-0.3c0,0-0.1-0.1-0.2-0.2
				c0.1-0.1,2.5-1.4,2.5-1.4c2-1.2,3.3-3.1,3.3-4l0,0c0-1.1-1.1-1.4-2-1.4c-1.3,0-2.5,0.5-4,1.6c-0.9,0.6-2.7,2.7-3.2,4.9
				c0,0,0,0.1,0,0.1c0,0-0.2,0-0.2,0c-1,0.2-2.6,0.6-2.9-0.3c-0.5-1.5,1-3,2.3-4.2l0.7-0.7c0.1-0.1,0.2-0.4,0.2-0.6
				c0-0.1-0.1-0.2-0.1-0.2c-0.7-0.3-1.3-0.1-1.9,0.2c-0.5,0.2-1,0.4-1.6,0.3c0,0-0.1,0-0.2,0c0-0.1,0-0.2,0-0.2
				c0-0.3,0.2-0.5,0.4-0.7c0,0,0.1-0.1,0.1-0.1c0,0,0-0.1,0-0.2c0-0.1,0-0.1,0-0.2c0-0.1-0.1-0.2-0.2-0.2c-0.4,0-1,0.3-1.6,0.9
				c-0.6,0.6-0.9,1.2-0.9,1.7l0,0.1c0,0,0,0,0,0c-0.1,1-0.9,1.9-2.1,3.2l-0.5,0.6c0,0-0.2,0.2-0.2,0.2c-0.7,0.7-1.2,1.3-1.3,1.6
				l0,0.1l0.1,0c0.5-0.2,2-0.9,4.6-4.1c0,0,0,0,0.1-0.1c0,0,0.1,0,0.1,0c0.1,0,0.3,0,0.4-0.1c0.3-0.1,0.6-0.2,0.9,0
				c0,0,0.1,0.1,0.2,0.1c0,0.1-0.5,0.7-0.5,0.7c-0.7,0.9-1.5,1.8-1.5,3c0,0.2,0,0.4,0.1,0.7c0.1,0.7,0.8,1,1.3,1
				c1.1,0.2,2.4-0.4,3.6-0.9l0.6-0.3c0.3-0.1,0.4,0.1,0.5,0.3c0.1,0.2,0.2,0.4,0.7,0.7c1.8,0.8,4.3,0.4,7.6-1.2c0,0,0.1,0,0.2-0.1
				c0,0.1,0.1,0.2,0.1,0.2c0.2,0.6,0.7,1,1.4,1.3c2.9,0.4,5.2-1.3,7.5-2.8c0,0,1-0.8,1.2-0.9c0,0,0.2,0.2,0.3,0.3c0,0.1-1,1.4-1,1.4
				c-0.3,0.5-0.7,1-0.8,1.5c0,0-0.1,0.2-0.1,0.2l0,0.1c0,0.1,0.2,0.1,0.4,0.2c1.7-0.2,3.4-1.7,4.5-2.6l0.3-0.3
				c0.5-0.4,0.9-0.8,1.1-0.8c0,0,0.1,0,0.1,0c0,0,0.1,0.1,0.1,0.1c0,0,0,0,0,0c0,0.1-0.1,0.3-0.2,0.4l-0.2,0.3
				c-0.1,0.3-0.4,0.9-0.4,1.5c0,0.2,0,0.4,0.1,0.5c0.5,0.8,1,0.8,1.5,0.9l0.2,0c2-0.1,4.1-1.9,6-3.6l1.5-1.3c0,0,1.2-1,1.4-1.2
				c0,0.1,0.1,0.2,0.1,0.2c0.1,0.4,0.2,0.7,0.2,0.9l0,0.4c0,0.2-0.3,1.4-0.8,1.8c0,0-0.1,0.1-0.1,0.1c0,0-0.3,0.1-0.3,0.1
				c-1.1,0.3-2.3,0.6-2.7,1.7c0,0,0,0.2,0,0.2c0,0.1,0.1,0.4,0.3,0.5c0.8,0.2,1.5,0,2.2-0.2l0.9-0.2c0.7,0,1.4,0.1,2.1,0.2
				c0.9,0.1,1.8,0.2,2.8,0.1c1.2-0.3,2.2-1.7,2.5-2.9l0-0.1l-0.1,0c-1.5,0.8-3.3,0.8-4.7,0.1c0,0-0.1,0-0.1-0.1c0,0,0.1-0.2,0.1-0.2
				c0,0,0.9-2.1,0.9-4.9c0-0.1,0-0.3,0-0.4h0c0-0.1,0-0.1,0-0.2c0-0.3,0.1-0.5,0.2-0.6c0.1-0.2,0.2-0.4,0.2-0.5c0,0,0-0.1,0-0.1
				c0,0,0,0,0,0c0,0,0-0.1,0-0.1c0,0,0,0,0,0c0-0.1-0.1-0.1-0.2-0.1C143.1,94.2,142.5,95.1,141.7,96.1z M110.3,100.8L110.3,100.8
				c0.1-0.7,1-1.9,1.6-2.4c0.5-0.5,1.1-0.9,1.7-1.1c0.3-0.1,0.6,0,0.7,0.2c0.1,0.1,0.1,0.2,0.1,0.3c0,0.1,0,0.2-0.1,0.4
				c-0.6,1-2.3,2.5-3.7,2.9c0,0-0.2,0.1-0.2,0.1C110.3,101,110.3,100.8,110.3,100.8z M119.5,100.6L119.5,100.6
				c0.1-1,1.6-2.4,1.6-2.4c0.5-0.5,1.1-0.9,1.7-1.1c0.2-0.1,0.5-0.1,0.6,0.1c0.1,0.1,0.1,0.2,0.1,0.3c0,0.1,0,0.2-0.1,0.4
				c-0.2,0.4-1.3,1.5-1.6,1.8c-0.4,0.3-1.3,1-2.1,1.2c0,0-0.1,0-0.2,0C119.5,100.7,119.5,100.6,119.5,100.6z"/>
		</g>
		<g>
			<path class="st0" d="M91.6,91.5L91.6,91.5c-1.5,0.1-3,1-4.7,2.8c-0.7,0.7-3.9,4.7-4.5,7.7c0,0,0,0.1,0,0.1c0,0-0.1,0-0.1,0
				c-0.5,0.3-1.9,0.9-2.8,0.6c-0.3-0.1-0.5-0.2-0.6-0.4c-0.1-0.3-0.2-0.5-0.2-0.8c0-0.7,0.4-1.3,0.7-1.8c0,0,0.2-0.3,0.2-0.3
				c0,0,0.1,0,0.1,0c0.8-0.2,2.1-1.8,2.5-2.8l0,0l0,0c-1-0.6-2.3-0.6-3.2-0.5c-1.5,0.2-3.2,0.8-4.6,1.8c-1.6,1.1-3.1,3.4-3.4,4.8
				c-0.2,0.8-0.3,1.7,0.3,2c1.2,0.7,3.5-0.6,5.1-2.1c0,0,0.2-0.2,0.3-0.3c0,0.2-0.1,0.6-0.1,0.6c0,0.2,0,0.4,0,0.6
				c0,0.4,0.1,0.8,0.3,1.1c1.3,1,4-0.1,5.5-1.1c0,0,0.1-0.1,0.1-0.1c0,0,0.1,0.1,0.1,0.1c0.5,0.6,1,1.2,1.7,1.3
				c1.7,0.2,2.9-0.7,4.1-1.8c0,0,0.2-0.1,0.2-0.2c0,0.1,0.1,0.5,0.1,0.5c0.1,0.4,0.2,0.8,0.5,1.1c0.8,0.6,2.7-0.2,3.8-1
				c0,0,0.2-0.2,0.4-0.3c0,0.1-0.1,0.5-0.1,0.5c-0.2,0.7-0.5,1.4-0.8,2l-0.3,0.6l0,0.1l-0.1,0.1c-0.4,0.7-1.3,2.1-2.1,2.2l-0.1,0
				c-0.2-0.1-0.3-0.2-0.4-0.3l-0.1-0.3c0-0.4,0.2-0.8,0.4-1.1l0-0.1l-0.1,0c-0.4,0.1-0.7,0.2-1.1,0.4c-0.7,0.4-1.5,1.4-1.5,2.3
				c0,0.2,0,0.4,0.1,0.5c0.2,0.3,0.6,0.4,0.7,0.3c5.1-0.5,8-6.3,10.1-10.6l0.4-0.8c0.1-0.2,0.1-0.3,0.1-0.3l0-0.1
				c0,0-0.1-0.1-0.1-0.1c0,0-0.1-0.3-0.1-0.3c0.1-0.4,1.1-1.3,1.1-1.3l0.1-0.1c0.1-0.1,0.2-0.1,0.2-0.2c0-0.1-0.1-0.1-0.2-0.2
				c-0.2-0.1-0.4-0.2-1.3-0.5c-1.5-0.4-4.2-0.1-6.6,2.2c-0.3,0.2-0.7,0.8-1.1,1.3l-0.5,0.6c-1.2,1.4-2.4,2.8-4.4,2.4
				c-0.3-0.1-0.5-0.3-0.6-0.6c-0.1-0.2-0.1-0.3,0-0.5l0,0c1.1-0.8,2.2-1.8,3.4-3c2-2.1,4.4-5.6,4.1-6.5
				C92.5,91.6,91.8,91.5,91.6,91.5z M75.4,98.4c1.1-0.5,2.4-0.5,3.5,0.1c0,0,0.1,0.1,0.2,0.1c0,0.1-0.7,1-0.7,1
				c-1.2,1.4-3.4,2.8-4.3,2.7v0c-0.4,0-0.8-0.3-0.8-0.6l0-0.3c0-0.9,1.3-2.4,1.9-2.9C75,98.7,75.4,98.4,75.4,98.4z M88.3,95
				c0.5-0.6,1.4-1.2,1.7-1.3c0.2-0.1,0.3,0,0.3,0.1c0,0.1,0.1,0.1,0.1,0.2c0,0.1,0,0.2-0.1,0.2l0,0c-0.5,1.6-3.4,5-5.1,6.2
				c0,0-0.2,0.1-0.3,0.2c0-0.1,0.1-0.4,0.1-0.4l0,0C85.1,99.1,87.3,96.3,88.3,95z M91.6,102.4L91.6,102.4c-0.5-0.3-0.6-0.8-0.4-1.4
				c0.2-0.6,1.9-2.6,3.3-2.8c1.3-0.2,1.8,0.2,2,0.4c0,0,0.1,0.1,0.2,0.2c-0.1,0.1-0.7,0.7-0.7,0.7C95,100.8,92.7,102.9,91.6,102.4z"
				/>
		</g>
	</g>
</g>
</svg>
