<?xml version="1.0" encoding="utf-8"?>
<!-- Generator: Adobe Illustrator 21.1.0, SVG Export Plug-In . SVG Version: 6.00 Build 0)  -->
<svg version="1.1" id="Layer_1" xmlns="http://www.w3.org/2000/svg" xmlns:xlink="http://www.w3.org/1999/xlink" x="0px" y="0px"
	 viewBox="0 0 200 200" style="enable-background:new 0 0 200 200;" xml:space="preserve">
<style type="text/css">
	.st0{fill:#404040;}
</style>
<g id="AARP_2_">
	<path class="st0" d="M62.8,107l-1.4,3.3h5.6l1.4-3.9C67.6,106.5,65.1,107.1,62.8,107z"/>
	<path class="st0" d="M136.9,89.8H126v19.7l-5.9-6.4c0.9-0.4,4.1-2,4.1-6.1c0-4.1-3.3-7.2-10.1-7.2h-10v18.9l-7.3-18.9h-8.4
		l-5.3,12.9l-5-12.9h-3.5h0h-4.8l-5,12.2c-0.6,0.1-1.3,0.1-2.1,0.1c-4.6,0-8.7-2.6-9.1-2.9l-1.6,3.9c0.2,0.1,4.4,3.1,10.4,3.1
		c3.7,0,6-0.9,9.6-0.9c4.6,0,7.9,1.6,9,2.3l-0.3,0.8c-0.7-0.4-2.2-1.2-4-1.7l1.2,3.4h7.6l1.7-4.5c0.1,0,1.8-0.3,3.8-0.3
		c2,0,3.7,0.3,3.8,0.3l1.6,4.5h15v-8.2l6.3,8.2h15.6v-6h3.4c5.7,0,9.2-2.8,9.2-7.2C146.1,92.9,142.9,89.8,136.9,89.8z M71.6,101.4
		c-0.4,0-0.8,0-1.2,0l2.2-6.1l2.3,6.3C74.8,101.7,73.4,101.4,71.6,101.4z M91.2,101.4c-1,0-2.2,0.1-2.3,0.2l2.3-6.1l2.3,6.1
		C93.4,101.6,92.2,101.4,91.2,101.4z M112.7,100.8h-1.1v-7.7h1.1c2.9,0,3.9,1.8,3.9,3.9C116.6,99.3,115.3,100.8,112.7,100.8z
		 M134.9,100.8h-1.5v-7.7h1.5c2.3,0,3.4,1.6,3.4,3.9C138.4,99.3,137.1,100.8,134.9,100.8z"/>
	<path class="st0" d="M145.1,91.4c-0.2,0-0.3,0-0.3-0.2c0,0,0-0.1,0-0.1h-0.3c0,0,0,0.1,0,0.2c0.1,0.3,0.4,0.4,0.7,0.4
		c0.2,0,0.5-0.1,0.6-0.3c0.1-0.1,0.1-0.2,0.1-0.3c0-0.2-0.1-0.3-0.2-0.4c-0.1-0.1-0.4-0.2-0.5-0.2c-0.1,0-0.3-0.1-0.3-0.2
		c0-0.1,0.2-0.2,0.3-0.2c0.2,0,0.3,0,0.3,0.3h0.3c0,0,0-0.2-0.1-0.2c-0.1-0.2-0.3-0.3-0.6-0.3c-0.3,0-0.6,0.2-0.6,0.5
		c0,0.2,0.1,0.3,0.2,0.4c0.1,0.1,0.3,0.2,0.5,0.2c0.1,0,0.2,0.1,0.3,0.2c0,0,0,0,0,0.1C145.4,91.3,145.3,91.4,145.1,91.4z"/>
	<polygon class="st0" points="147.4,89.8 147,91.3 146.6,89.8 146.2,89.8 146.2,91.6 146.4,91.6 146.4,90.2 146.8,91.6 147.2,91.6 
		147.7,90.2 147.7,91.6 147.9,91.6 147.9,89.8 	"/>
</g>
</svg>
