<?xml version="1.0" encoding="utf-8"?>
<!-- Generator: Adobe Illustrator 21.1.0, SVG Export Plug-In . SVG Version: 6.00 Build 0)  -->
<svg version="1.1" id="Layer_1" xmlns="http://www.w3.org/2000/svg" xmlns:xlink="http://www.w3.org/1999/xlink" x="0px" y="0px"
	 viewBox="0 0 200 200" style="enable-background:new 0 0 200 200;" xml:space="preserve">
<style type="text/css">
	.st0{fill:#404040;}
</style>
<g>
	<path class="st0" d="M85.2,90.4c0,0,0.2-0.8-0.4-0.6c-0.6,0.3-1.4,1.2-1.8,1.8c-0.7,1-2,3.7-2,5c0.8-0.4,2.5-2.5,3-3.4
		C84.4,92.5,85.1,91.4,85.2,90.4z"/>
	<path class="st0" d="M96.8,81.9H67.1v3.4l0,21.1h29.7c0.7,0,1.3-0.6,1.3-1.3V83.3C98.1,82.5,97.5,81.9,96.8,81.9z M92.8,93.6
		c-2.5,4.4-6.3,9.5-11.5,8.5c-0.8-0.1-1.4-0.7-2-1.3c-1.8,1.3-3.9,2.2-6,0.9c-1.3-1-1.3-3.3-1.1-4.8c0.4-2.2,2.5-5.7,3.8-7.5
		c-1.4,0.4-2.2,0.2-3.8,0.1c-0.9-0.1-1.9-0.2-2.5,0.4c0.1-0.9,0.4-1.6,0.8-2.3c1.6-2,3.7-0.6,6.7-0.7c1.3-0.1,3-0.5,3-0.5
		C78,89,74.1,94,74.7,97.9c0.1,0.7,0.3,1.5,1.3,1.7c1,0.3,1.8-0.2,2.5-0.8c-0.2-2.7,1.3-6.2,2.8-8.3c0.6-0.8,1-1.3,1.8-1.9
		c1.2-1,3.4-2.1,4.5-1.3c1.3,1.1-0.1,3.8-0.9,5.2c-1,1.7-2.7,4.3-4.2,5.7c0.2,0.6,0.7,1.2,1.3,1.3c2.8,0.5,5.1-2.9,6.3-5.1
		c0.8-1.8,2-5.2,0.7-6.9L90,86.8c0.9-0.7,2.1-3,3.6-1.3C95.3,87.3,93.8,91.9,92.8,93.6z"/>
	<path class="st0" d="M101.3,104.9c0-0.3-0.2-0.4-0.5-0.4h-0.6v1.4h0.2v-0.6h0.2l0.4,0.6h0.2l-0.4-0.6
		C101.1,105.3,101.3,105.2,101.3,104.9z M100.5,105.2v-0.4h0.3c0.2,0,0.3,0,0.3,0.2c0,0.2-0.2,0.2-0.4,0.2H100.5z"/>
	<path class="st0" d="M100.7,104c-0.7,0-1.2,0.5-1.2,1.2c0,0.7,0.6,1.2,1.2,1.2c0.7,0,1.2-0.5,1.2-1.2
		C101.9,104.5,101.4,104,100.7,104z M100.7,106.3c-0.6,0-1-0.4-1-1c0-0.6,0.4-1,1-1c0.6,0,1,0.4,1,1
		C101.7,105.8,101.3,106.3,100.7,106.3z"/>
	<polygon class="st0" points="78.2,118.1 78.2,107.1 67.6,107.1 	"/>
	<path class="st0" d="M138.6,63.7H61.4c-5.3,0-9.7,4.3-9.7,9.7v53.2c0,5.3,4.3,9.7,9.7,9.7h77.1c5.3,0,9.7-4.3,9.7-9.7V73.4
		C148.2,68,143.9,63.7,138.6,63.7z M143.4,126.6c0,2.7-2.2,4.8-4.8,4.8H61.4c-2.7,0-4.8-2.2-4.8-4.8V73.4c0-2.7,2.2-4.8,4.8-4.8
		h77.1c2.7,0,4.8,2.2,4.8,4.8V126.6z"/>
	<path class="st0" d="M132.5,105h-19.8c-1,0-1.8,0.8-1.8,1.8s0.8,1.8,1.8,1.8h19.8c1,0,1.8-0.8,1.8-1.8S133.5,105,132.5,105z"/>
	<path class="st0" d="M132.5,91.4h-19.8c-1,0-1.8,0.8-1.8,1.8s0.8,1.8,1.8,1.8h19.8c1,0,1.8-0.8,1.8-1.8S133.5,91.4,132.5,91.4z"/>
</g>
</svg>
