<?xml version="1.0" encoding="utf-8"?>
<!-- Generator: Adobe Illustrator 21.1.0, SVG Export Plug-In . SVG Version: 6.00 Build 0)  -->
<svg version="1.1" id="Layer_1" xmlns="http://www.w3.org/2000/svg" xmlns:xlink="http://www.w3.org/1999/xlink" x="0px" y="0px"
	 viewBox="0 0 200 200" style="enable-background:new 0 0 200 200;" xml:space="preserve">
<style type="text/css">
	.st0{fill:#404040;}
</style>
<g>
	<path class="st0" d="M129.9,66.2c0-1-0.6-1.9-1.5-2.3c-0.9-0.4-2-0.1-2.6,0.6c-0.2,0.2-3.9,3.9-12,3.9c-8,0-11.6-3.6-11.9-3.9
		c-0.8-0.9-2.2-1-3.2-0.3c-0.1,0-5.9,4.1-14,4.1c-7.2,0-9.8-3.2-10.1-3.5c-0.6-0.9-1.7-1.3-2.7-1c-1,0.3-1.7,1.3-1.7,2.4L70.3,99
		c0,0.9-0.2,7,3,14.3c3.1,7.1,10.1,16.8,25.8,22.8c0,0,0,0,0,0c0.3,0.1,0.5,0.1,0.8,0.1s0.6,0,0.8-0.1c0,0,0,0,0,0
		c15.7-6,22.7-15.7,25.8-22.8c3.2-7.3,3.1-13.4,3-14.3L129.9,66.2z M84.6,73.2c7,0,12.5-2.6,15.2-4c0.6,0.5,1.4,1,2.4,1.5
		c3.3,1.7,7.2,2.6,11.5,2.6c4.2,0,8.1-0.9,11.3-2.5l0,12.3H75l0-11.9C77.2,72.3,80.4,73.2,84.6,73.2z M122.2,111.6
		c-3.9,8.8-11.4,15.4-22.2,19.7c-10.8-4.3-18.3-10.9-22.2-19.7c-3-6.7-2.7-12.3-2.7-12.3c0-0.1,0-0.1,0-0.2l0-12.4H125l0,12.4
		c0,0,0,0.1,0,0.2C124.9,99.3,125.2,104.8,122.2,111.6z"/>
	<path class="st0" d="M106.1,105.1C106.1,105.1,106.1,105.1,106.1,105.1l-4.3,0l0-4.3c0-1-0.8-1.8-1.8-1.8c0,0,0,0,0,0
		c-1,0-1.8,0.8-1.8,1.8l0,4.3l-4.3,0c-1,0-1.8,0.8-1.8,1.8c0,1,0.8,1.8,1.8,1.8c0,0,0,0,0,0l4.3,0l0,4.3c0,1,0.8,1.8,1.8,1.8
		c0,0,0,0,0,0c1,0,1.8-0.8,1.8-1.8l0-4.3l4.3,0c1,0,1.8-0.8,1.8-1.8C107.9,105.9,107.1,105.1,106.1,105.1z"/>
</g>
</svg>
