<svg xmlns="http://www.w3.org/2000/svg" width="34" height="30" viewBox="0 0 34 30">
    <path fill="#404040" d="M32.318 9.727C30.91 6 28.136 3.045 24.5 1.364 17-2.046 8.136 1.318 4.727 8.818c-.545 1.227-.954 2.546-1.136 3.864l-1.5-1.5c-.41-.41-1.046-.41-1.41 0-.408.409-.408 1.045 0 1.409l3.364 3.364c.41.409 1.046.409 1.41 0l3.363-3.364c.41-.41.41-1.046 0-1.41-.409-.408-1.045-.408-1.409 0l-1.864 1.864c.182-1.181.5-2.318 1-3.409 1.41-3.136 4-5.545 7.228-6.772C17 1.636 20.5 1.773 23.682 3.182c3.136 1.409 5.545 4 6.773 7.227 1.227 3.227 1.09 6.727-.319 9.91-2.954 6.5-10.636 9.363-17.09 6.454-.5-.228-1.091 0-1.319.5-.182.409-.09.863.228 1.136.09.091.181.136.318.227 7.5 3.41 16.363.046 19.772-7.454 1.546-3.637 1.682-7.727.273-11.455z"/>
</svg>
