<?xml version="1.0" encoding="utf-8"?>
<!-- Generator: Adobe Illustrator 21.1.0, SVG Export Plug-In . SVG Version: 6.00 Build 0)  -->
<svg version="1.1" id="Layer_1" xmlns="http://www.w3.org/2000/svg" xmlns:xlink="http://www.w3.org/1999/xlink" x="0px" y="0px"
	 viewBox="0 0 200 200" style="enable-background:new 0 0 200 200;" xml:space="preserve">
<style type="text/css">
	.st0{fill:#404040;}
</style>
<g>
	<path class="st0" d="M109.5,102.3h-19c-10.2,0-14.4,15.3-14.4,21.7v9.6c0,1.3,1.1,2.4,2.4,2.4h42.9c1.3,0,2.4-1.1,2.4-2.4V124
		C123.9,117.6,119.7,102.3,109.5,102.3z M91.5,114.9c0.9,0,1.7,0.8,1.7,1.7c0,0.9-0.8,1.7-1.7,1.7s-1.7-0.8-1.7-1.7
		C89.8,115.7,90.5,114.9,91.5,114.9z M119,131.1H81V124c0-2.6,0.9-7.1,2.7-10.9c2.1-4.3,4.3-5.6,6-5.9v4.5c-2.1,0.7-3.6,2.7-3.6,5
		c0,2.9,2.4,5.3,5.3,5.3c2.9,0,5.3-2.4,5.3-5.3c0-2.3-1.4-4.2-3.4-5v-4.6h12.3v4.6c-3.1,0.9-5.4,3.7-5.4,7.2c0,0.5,0.1,1,0.2,1.5
		c0.2,0.9,0.9,1.5,1.8,1.5c0.1,0,0.2,0,0.4,0c1-0.2,1.6-1.2,1.4-2.1c-0.1-0.3-0.1-0.5-0.1-0.8c0-2.1,1.7-3.8,3.8-3.8
		c2.1,0,3.8,1.7,3.8,3.8c0,0.3,0,0.5-0.1,0.8c-0.2,1,0.4,1.9,1.4,2.1c1,0.2,1.9-0.4,2.1-1.4c0.1-0.5,0.2-1,0.2-1.5
		c0-3.5-2.5-6.5-5.8-7.2v-4.5h0.2c1.8,0,4.3,1,6.8,5.9c1.9,3.8,2.7,8.3,2.7,10.9V131.1z"/>
	<path class="st0" d="M100,97.9c0,0,0.1,0,0.1,0c4.5,0,8.8-1.8,11.9-5c3.2-3.2,4.9-7.5,4.9-12c0-4.5-1.8-8.8-5-11.9
		c-3.2-3.2-7.5-4.9-12-4.9c-4.5,0-8.8,1.8-11.9,5c-3.2,3.2-4.9,7.5-4.9,12c0,4.5,1.8,8.8,5,11.9C91.3,96.2,95.5,97.9,100,97.9z
		 M91.4,72.5c2.3-2.3,5.3-3.6,8.5-3.6c0,0,0.1,0,0.1,0c3.2,0,6.2,1.2,8.5,3.5c2.3,2.3,3.6,5.3,3.6,8.5c0,3.2-1.2,6.3-3.5,8.6
		c-2.3,2.3-5.3,3.6-8.5,3.6c-3.2,0-6.3-1.2-8.6-3.5c-2.3-2.3-3.6-5.3-3.6-8.5C87.9,77.8,89.1,74.8,91.4,72.5z"/>
	<polygon class="st0" points="116.9,80.9 116.9,80.9 116.9,80.9 	"/>
</g>
</svg>
