<?xml version="1.0" encoding="utf-8"?>
<!-- Generator: Adobe Illustrator 21.1.0, SVG Export Plug-In . SVG Version: 6.00 Build 0)  -->
<svg version="1.1" id="Layer_1" xmlns="http://www.w3.org/2000/svg" xmlns:xlink="http://www.w3.org/1999/xlink" x="0px" y="0px"
	 viewBox="0 0 200 200" style="enable-background:new 0 0 200 200;" xml:space="preserve">
<style type="text/css">
	.st0{fill:#404040;}
</style>
<g>
	<path class="st0" d="M109.5,101.9h-19c-10.2,0-14.4,15.5-14.4,21.9v9.7c0,1.3,1.1,2.4,2.4,2.4h16.2c0,0,0,0,0,0c0,0,0,0,0,0h26.7
		c1.3,0,2.4-1.1,2.4-2.4v-9.7C123.9,117.4,119.7,101.9,109.5,101.9z M100,112.2l-2-5.4h4L100,112.2z M81,123.8
		c0-2.6,0.9-7.2,2.7-11.1c1.1-2.2,3.4-6,6.8-6h2.4l4.3,11.6c0.1,0.2,0.2,0.4,0.3,0.6l-4.4,12.1H81V123.8z M119,131.1H98.2l8.9-24.4
		h2.4c3.3,0,5.7,3.8,6.8,6c1.9,3.9,2.7,8.4,2.7,11.1V131.1z"/>
	<polygon class="st0" points="116.9,80.9 116.9,80.9 116.9,80.9 	"/>
	<path class="st0" d="M100,97.9c0,0,0.1,0,0.1,0c4.5,0,8.8-1.8,11.9-5c3.2-3.2,4.9-7.5,4.9-12c0-4.5-1.8-8.8-5-11.9
		c-3.2-3.2-7.5-4.9-12-4.9c-4.5,0-8.8,1.8-11.9,5c-3.2,3.2-4.9,7.5-4.9,12c0,4.5,1.8,8.8,5,11.9C91.3,96.2,95.5,97.9,100,97.9z
		 M91.4,72.5c2.3-2.3,5.3-3.6,8.5-3.6c0,0,0.1,0,0.1,0c3.2,0,6.2,1.2,8.5,3.5c2.3,2.3,3.6,5.3,3.6,8.5c0,0,0,0,0,0
		c0,3.2-1.2,6.3-3.5,8.6c-2.3,2.3-5.3,3.6-8.5,3.6c-3.2,0-6.3-1.2-8.6-3.5c-2.3-2.3-3.6-5.3-3.6-8.5C87.9,77.8,89.1,74.8,91.4,72.5z
		"/>
	<path class="st0" d="M113.4,116.1h-5.6c-1,0-1.8,0.8-1.8,1.8s0.8,1.8,1.8,1.8h5.6c1,0,1.8-0.8,1.8-1.8S114.4,116.1,113.4,116.1z"/>
</g>
</svg>
