<?xml version="1.0" encoding="utf-8"?>
<!-- Generator: Adobe Illustrator 21.1.0, SVG Export Plug-In . SVG Version: 6.00 Build 0)  -->
<svg version="1.1" id="Layer_1" xmlns="http://www.w3.org/2000/svg" xmlns:xlink="http://www.w3.org/1999/xlink" x="0px" y="0px"
	 viewBox="0 0 200 200" style="enable-background:new 0 0 200 200;" xml:space="preserve">
<style type="text/css">
	.st0{fill:#404040;}
</style>
<g>
	<path class="st0" d="M138.6,63.7H61.4c-5.3,0-9.7,4.3-9.7,9.7v53.2c0,5.3,4.3,9.7,9.7,9.7h77.1c5.3,0,9.7-4.3,9.7-9.7V73.4
		C148.2,68,143.9,63.7,138.6,63.7z M143.4,126.6c0,2.7-2.2,4.8-4.8,4.8H61.4c-2.7,0-4.8-2.2-4.8-4.8V73.4c0-2.7,2.2-4.8,4.8-4.8
		h77.1c2.7,0,4.8,2.2,4.8,4.8V126.6z"/>
	<path class="st0" d="M98.5,80.8c-0.7-0.3-1.5-0.1-2,0.5c-0.2,0.2-2,1.8-5.8,1.8c-3.8,0-5.6-1.7-5.8-1.8c-0.6-0.7-1.6-0.8-2.4-0.2
		c0,0-3,2-6.9,2c-3.3,0-4.6-1.4-4.8-1.6c-0.4-0.7-1.2-1-2-0.8c-0.8,0.2-1.3,1-1.3,1.8l0.1,17c0,0.6-0.1,3.8,1.6,7.7
		c1.7,3.8,5.4,8.9,13.7,12.1c0.2,0.1,0.4,0.1,0.7,0.1c0.2,0,0.4,0,0.6-0.1c8.3-3.2,12.1-8.3,13.7-12.1c1.7-3.9,1.6-7.1,1.6-7.7
		l0.1-17C99.7,81.7,99.2,81,98.5,80.8z M75.6,86.7c3.5,0,6.3-1.2,7.8-2c1.3,0.9,3.7,2,7.2,2c1.9,0,3.7-0.3,5.3-1l0,4.6H71.2l0-4.4
		C72.3,86.3,73.8,86.7,75.6,86.7z M83.6,115.6c-12.8-5.2-12.4-15.5-12.4-16c0,0,0-0.1,0-0.1l0-5.5H96l0,5.5c0,0,0,0.1,0,0.1
		C96,99.7,96.5,110.3,83.6,115.6z"/>
	<path class="st0" d="M86.8,101.8C86.8,101.8,86.8,101.8,86.8,101.8l-1.4,0l0-1.4c0-1-0.8-1.8-1.8-1.8c0,0,0,0,0,0
		c-1,0-1.8,0.8-1.8,1.8l0,1.4l-1.4,0c-1,0-1.8,0.8-1.8,1.8c0,1,0.8,1.8,1.8,1.8c0,0,0,0,0,0l1.4,0l0,1.4c0,1,0.8,1.8,1.8,1.8
		c0,0,0,0,0,0c1,0,1.8-0.8,1.8-1.8l0-1.4l1.4,0c1,0,1.8-0.8,1.8-1.8C88.6,102.6,87.8,101.8,86.8,101.8z"/>
	<path class="st0" d="M132.9,105h-19.8c-1,0-1.8,0.8-1.8,1.8s0.8,1.8,1.8,1.8h19.8c1,0,1.8-0.8,1.8-1.8S133.9,105,132.9,105z"/>
	<path class="st0" d="M132.9,91.4h-19.8c-1,0-1.8,0.8-1.8,1.8s0.8,1.8,1.8,1.8h19.8c1,0,1.8-0.8,1.8-1.8S133.9,91.4,132.9,91.4z"/>
</g>
</svg>
