<?xml version="1.0" encoding="utf-8"?>
<!-- Generator: Adobe Illustrator 21.1.0, SVG Export Plug-In . SVG Version: 6.00 Build 0)  -->
<svg version="1.1" id="Layer_1" xmlns="http://www.w3.org/2000/svg" xmlns:xlink="http://www.w3.org/1999/xlink" x="0px" y="0px"
	 viewBox="0 0 200 200" style="enable-background:new 0 0 200 200;" xml:space="preserve">
<style type="text/css">
	.st0{fill:#404040;}
</style>
<g id="Wag_Corner_Flag_2_">
	<g>
		<path class="st0" d="M101.4,80.9c0,0,0.3-1.6-0.8-1.1s-2.9,2.4-3.6,3.6c-1.3,2.1-4,7.5-4.1,9.9c1.5-0.9,4.9-5,5.9-6.7
			C99.9,85,101.2,82.8,101.4,80.9z"/>
		<path class="st0" d="M124.5,64H65.3v6.8v0l0,42h59.2c1.5,0,2.6-1.1,2.6-2.6V66.6C127.1,65.1,125.9,64,124.5,64z M116.6,87.3
			c-4.9,8.8-12.6,18.9-23,17c-1.5-0.3-2.9-1.4-4-2.6c-3.7,2.5-7.8,4.5-11.9,1.7c-2.5-2.1-2.5-6.7-2.1-9.6c0.8-4.4,5-11.5,7.5-15
			c-2.8,0.8-4.4,0.4-7.6,0.1c-1.8-0.1-3.7-0.4-5,0.7c0.2-1.7,0.7-3.2,1.7-4.6c3.2-3.9,7.5-1.2,13.3-1.4c2.5-0.1,6-1.1,6-1.1
			C87,78.1,79.2,88,80.4,95.9c0.3,1.3,0.6,3,2.6,3.4c2,0.6,3.6-0.4,5.1-1.5c-0.3-5.4,2.6-12.4,5.6-16.5c1.1-1.5,2.1-2.6,3.5-3.8
			c2.4-2,6.7-4.1,8.9-2.6c2.6,2.2-0.2,7.6-1.9,10.4c-2,3.4-5.5,8.6-8.4,11.5c0.4,1.2,1.4,2.4,2.6,2.6c5.5,0.9,10.2-5.7,12.7-10.1
			c1.7-3.6,4.1-10.3,1.3-13.8l-1.4-1.7c1.8-1.5,4.2-5.9,7.2-2.5C121.5,74.6,118.6,83.8,116.6,87.3z"/>
	</g>
	<g>
		<path class="st0" d="M132.3,108c1.3,0,2.4,1.1,2.4,2.4c0,1.4-1.1,2.4-2.4,2.4c-1.3,0-2.4-1.1-2.4-2.4C129.9,109,131,108,132.3,108
			z M132.3,112.5c1.1,0,2-0.9,2-2.1c0-1.2-0.9-2.1-2-2.1c-1.1,0-2,0.9-2,2.1C130.3,111.6,131.2,112.5,132.3,112.5z M132.5,109
			c0.7,0,1,0.3,1,0.8c0,0.5-0.3,0.7-0.7,0.8l0.8,1.3H133l-0.8-1.2h-0.5v1.2h-0.4V109H132.5z M131.8,110.3h0.5c0.4,0,0.7,0,0.7-0.5
			c0-0.4-0.3-0.4-0.6-0.4h-0.6V110.3z"/>
	</g>
	<polygon class="st0" points="87.3,136 87.3,114.2 66.2,114.2 	"/>
</g>
</svg>
