<?xml version="1.0" encoding="utf-8"?>
<!-- Generator: Adobe Illustrator 21.1.0, SVG Export Plug-In . SVG Version: 6.00 Build 0)  -->
<svg version="1.1" id="Layer_1" xmlns="http://www.w3.org/2000/svg" xmlns:xlink="http://www.w3.org/1999/xlink" x="0px" y="0px"
	 viewBox="0 0 200 200" style="enable-background:new 0 0 200 200;" xml:space="preserve">
<style type="text/css">
	.st0{fill:#404040;}
</style>
<g>
	<path class="st0" d="M134.1,92.3c-0.9-0.4-1.9-0.2-2.7,0.3l-7.3,3.7v-4.2c0-5.3-4.3-9.7-9.7-9.7h-4.5l-5.2-10.1
		c-0.4-0.8-1.2-1.3-2.2-1.3h-22c-1.3,0-2.4,1.1-2.4,2.4s1.1,2.4,2.4,2.4h20.5l3.4,6.5H73.7c-5.3,0-9.7,4.3-9.7,9.7v27.3
		c0,5.3,4.3,9.7,9.7,9.7h40.7c5.3,0,9.7-4.3,9.7-9.7v-4.2l7.3,3.7c0.5,0.3,1.1,0.5,1.7,0.5c0.4,0,0.7-0.1,1.1-0.2
		c1.1-0.5,1.9-1.6,1.9-2.8V95.1C136,93.9,135.3,92.8,134.1,92.3z M119.2,119.3c0,2.7-2.2,4.8-4.8,4.8H73.7c-2.7,0-4.8-2.2-4.8-4.8
		V92.1c0-2.7,2.2-4.8,4.8-4.8h40.7c2.7,0,4.8,2.2,4.8,4.8V119.3z M131.2,113.2l-6.8-3.4c-0.1-0.1-0.2-0.3-0.3-0.4v-7.6
		c0.1-0.1,0.2-0.2,0.3-0.4l6.8-3.4V113.2z"/>
	<path class="st0" d="M113,114.1H75.4c-1,0-1.8,0.8-1.8,1.8s0.8,1.8,1.8,1.8H113c1,0,1.8-0.8,1.8-1.8S114,114.1,113,114.1z"/>
</g>
</svg>
