<?xml version="1.0" encoding="utf-8"?>
<!-- Generator: Adobe Illustrator 21.1.0, SVG Export Plug-In . SVG Version: 6.00 Build 0)  -->
<svg version="1.1" id="Layer_1" xmlns="http://www.w3.org/2000/svg" xmlns:xlink="http://www.w3.org/1999/xlink" x="0px" y="0px"
	 viewBox="0 0 200 200" style="enable-background:new 0 0 200 200;" xml:space="preserve">
<style type="text/css">
	.st0{fill:#404040;}
</style>
<path class="st0" d="M126.6,63.8H95c-5.3,0-9.7,4.3-9.7,9.7V81h-12c-5.3,0-9.7,4.3-9.7,9.7v18.6c0,5.3,4.3,9.7,9.7,9.7h12v7.5
	c0,5.3,4.3,9.7,9.7,9.7h31.6c5.3,0,9.7-4.3,9.7-9.7v-53C136.3,68.2,132,63.8,126.6,63.8z M68.5,109.3V90.7c0-2.7,2.2-4.8,4.8-4.8
	h31.9c2.7,0,4.8,2.2,4.8,4.8v18.6c0,2.7-2.2,4.8-4.8,4.8H73.4C70.7,114.1,68.5,112,68.5,109.3z M131.5,126.5c0,2.7-2.2,4.8-4.8,4.8
	H95c-2.7,0-4.8-2.2-4.8-4.8V119h15.1c5.3,0,9.7-4.3,9.7-9.7V90.7c0-5.3-4.3-9.7-9.7-9.7H90.2v-7.5c0-2.7,2.2-4.8,4.8-4.8h31.6
	c2.7,0,4.8,2.2,4.8,4.8V126.5z"/>
</svg>
