<?xml version="1.0" encoding="utf-8"?>
<!-- Generator: Adobe Illustrator 21.1.0, SVG Export Plug-In . SVG Version: 6.00 Build 0)  -->
<svg version="1.1" id="Layer_1" xmlns="http://www.w3.org/2000/svg" xmlns:xlink="http://www.w3.org/1999/xlink" x="0px" y="0px"
	 viewBox="0 0 200 200" style="enable-background:new 0 0 200 200;" xml:space="preserve">
<style type="text/css">
	.st0{fill:#404040;}
</style>
<g>
	<g>
		<g>
			<path class="st0" d="M82.5,95.8c0.1,1.6,1.1,2.1,2.6,2.1c1.1,0,2.2-0.4,2.2-1.4c0-1.2-2-1.5-4-2c-2-0.6-4-1.5-4-4
				c0-3,3-4.2,5.6-4.2c2.7,0,5.5,1.3,5.5,4.5h-3.6c0.1-1.3-1.1-1.7-2.2-1.7c-0.8,0-1.7,0.3-1.7,1.2c0,1.1,2,1.3,4,1.8
				c2,0.6,4,1.5,4,4c0,3.5-3,4.6-6,4.6c-3.2,0-6-1.4-6-4.9H82.5z"/>
			<path class="st0" d="M92.4,86.6h5.3l2.4,9.2h0l2.4-9.2h5.3v13.8h-3.4V90h0l-2.9,10.5h-2.7L95.8,90h0v10.5h-3.4V86.6z"/>
			<path class="st0" d="M112.9,95.8c0.1,1.6,1.1,2.1,2.6,2.1c1.1,0,2.2-0.4,2.2-1.4c0-1.2-2-1.5-4-2c-2-0.6-4-1.5-4-4
				c0-3,3-4.2,5.6-4.2c2.7,0,5.5,1.3,5.5,4.5h-3.6c0.1-1.3-1.1-1.7-2.2-1.7c-0.8,0-1.7,0.3-1.7,1.2c0,1.1,2,1.3,4,1.8
				c2,0.6,4,1.5,4,4c0,3.5-3,4.6-6,4.6c-3.2,0-6-1.4-6-4.9H112.9z"/>
		</g>
	</g>
	<path class="st0" d="M115.5,133.6c-0.4,0-0.9-0.1-1.3-0.4L95,121.4H73.2c-5.1,0-9.2-4.1-9.2-9.2V75.7c0-5.1,4.1-9.2,9.2-9.2h53.7
		c5.1,0,9.2,4.1,9.2,9.2v36.5c0,5.1-4.1,9.2-9.2,9.2h-8.9l0,9.7c0,0.9-0.5,1.7-1.2,2.1C116.3,133.4,115.9,133.6,115.5,133.6z
		 M73.2,71.3c-2.4,0-4.4,2-4.4,4.4v36.5c0,2.4,2,4.4,4.4,4.4h22.5c0.4,0,0.9,0.1,1.3,0.4l16.1,9.9l0-7.8c0-0.6,0.3-1.3,0.7-1.7
		s1.1-0.7,1.7-0.7h11.3c2.4,0,4.4-2,4.4-4.4V75.7c0-2.4-2-4.4-4.4-4.4H73.2z"/>
</g>
</svg>
