<?xml version="1.0" encoding="utf-8"?>
<!-- Generator: Adobe Illustrator 21.1.0, SVG Export Plug-In . SVG Version: 6.00 Build 0)  -->
<svg version="1.1" id="Layer_1" xmlns="http://www.w3.org/2000/svg" xmlns:xlink="http://www.w3.org/1999/xlink" x="0px" y="0px"
	 viewBox="0 0 200 200" style="enable-background:new 0 0 200 200;" xml:space="preserve">
<style type="text/css">
	.st0{fill:#414141;}
</style>
<g>
	<path class="st0" d="M93.6,75.8l4-3.7v45.9c0,1.3,1.1,2.4,2.4,2.4s2.4-1.1,2.4-2.4V72.1l4,3.7c0.5,0.4,1.1,0.7,1.7,0.7
		c0.6,0,1.3-0.3,1.8-0.8c0.9-1,0.9-2.5-0.1-3.4l-8-7.6c-0.9-0.9-2.4-0.9-3.3,0l-8,7.6c-1,0.9-1,2.4-0.1,3.4
		C91.1,76.6,92.6,76.7,93.6,75.8z"/>
	<path class="st0" d="M133.5,131.1h-67c-1.3,0-2.4,1.1-2.4,2.4s1.1,2.4,2.4,2.4h67c1.3,0,2.4-1.1,2.4-2.4S134.9,131.1,133.5,131.1z"
		/>
</g>
</svg>
