<?xml version="1.0" encoding="utf-8"?>
<!-- Generator: Adobe Illustrator 21.1.0, SVG Export Plug-In . SVG Version: 6.00 Build 0)  -->
<svg version="1.1" id="Layer_1" xmlns="http://www.w3.org/2000/svg" xmlns:xlink="http://www.w3.org/1999/xlink" x="0px" y="0px"
	 viewBox="0 0 200 200" style="enable-background:new 0 0 200 200;" xml:space="preserve">
<style type="text/css">
	.st0{fill:#404040;}
</style>
<g>
	<path class="st0" d="M128.1,92c0-15.5-12.6-28.1-28.1-28.1S71.9,76.5,71.9,92c0,9,4.2,17,10.8,22.2v19.4c0,0.8,0.4,1.5,1.1,2
		c0.7,0.5,1.5,0.5,2.2,0.3l14-5.5l14,5.5c0.3,0.1,0.6,0.2,0.9,0.2c0.5,0,1-0.1,1.4-0.4c0.7-0.5,1.1-1.2,1.1-2v-19.4
		C123.9,109,128.1,101,128.1,92z M76.7,92c0-12.8,10.4-23.3,23.3-23.3s23.3,10.4,23.3,23.3s-10.4,23.3-23.3,23.3S76.7,104.9,76.7,92
		z M112.4,130.1l-11.5-4.5c-0.6-0.2-1.2-0.2-1.8,0l-11.5,4.5v-12.9c3.8,1.9,8,2.9,12.4,2.9s8.7-1,12.4-2.9V130.1z"/>
	<path class="st0" d="M92.5,95.7l-0.9,5.3c-0.2,0.9,0.2,1.8,1,2.4c0.8,0.6,1.7,0.6,2.6,0.2l4.8-2.5l4.7,2.5c0.4,0.2,0.8,0.3,1.1,0.3
		c0.5,0,1-0.2,1.4-0.5c0.8-0.5,1.1-1.5,1-2.4l-0.9-5.3l3.9-3.7c0.7-0.6,0.9-1.6,0.6-2.5c-0.3-0.9-1-1.5-2-1.7l-5.3-0.8l-2.4-4.8
		c-0.4-0.8-1.2-1.4-2.2-1.4c0,0,0,0,0,0c-0.9,0-1.8,0.5-2.2,1.3L95.3,87L90,87.8c-0.9,0.1-1.7,0.8-2,1.6c-0.3,0.9-0.1,1.8,0.6,2.5
		L92.5,95.7z M96.5,90.5c0.8-0.1,1.5-0.6,1.8-1.3l1.6-3.2l1.6,3.2c0.4,0.7,1,1.2,1.8,1.3c0,0,0,0,0,0l3.5,0.5l-2.6,2.5
		c-0.6,0.6-0.8,1.4-0.7,2.1l0.6,3.5l-3.2-1.7c-0.4-0.2-0.7-0.3-1.1-0.3c-0.4,0-0.8,0.1-1.1,0.3l-3.2,1.7l0.6-3.5
		c0.1-0.8-0.1-1.6-0.7-2.2L92.9,91L96.5,90.5z"/>
</g>
</svg>
