<?xml version="1.0" encoding="utf-8"?>
<!-- Generator: Adobe Illustrator 21.1.0, SVG Export Plug-In . SVG Version: 6.00 Build 0)  -->
<svg version="1.1" id="Layer_1" xmlns="http://www.w3.org/2000/svg" xmlns:xlink="http://www.w3.org/1999/xlink" x="0px" y="0px"
	 viewBox="0 0 200 200" style="enable-background:new 0 0 200 200;" xml:space="preserve">
<style type="text/css">
	.st0{fill:#404040;}
</style>
<g>
	<path class="st0" d="M123.3,107.7h-13.6c-3-3.4-6.4-5.3-9.9-5.3h-19c-4.4,0-8.7,3-12.2,8.3c-2.8,4.3-4.6,9.5-4.6,13.2v9.7
		c0,1.3,1.1,2.4,2.4,2.4h47.8c0,0,0,0,0,0l19.4,0c0.6,0,1.3-0.3,1.7-0.7c0.5-0.5,0.7-1.1,0.7-1.7v-7.6
		C136,120.8,130.9,107.7,123.3,107.7z M68.8,123.9c0-5.2,5.8-16.7,11.9-16.7h19c6.2,0,11.9,11.5,11.9,16.7v7.3h-10l0,0H68.8V123.9z
		 M131.2,131.2h-14.6v-7.3c0-3.2-1.4-7.5-3.5-11.4h10.2c1.5,0,3.5,1.9,5.2,5c1.8,3.3,2.7,6.8,2.7,8.5V131.2z"/>
	<polygon class="st0" points="107.2,80.7 107.2,80.7 107.2,80.7 	"/>
	<path class="st0" d="M90.3,97.8c0,0,0.1,0,0.1,0c4.5,0,8.8-1.8,11.9-5c0.1-0.1,0.2-0.3,0.4-0.4c0.3,3.3,1.7,6.3,4,8.6
		c2.6,2.6,6,4,9.7,4c0,0,0.1,0,0.1,0c7.6-0.1,13.7-6.3,13.7-13.9c0-3.7-1.5-7.1-4.1-9.7c-2.6-2.6-6-4-9.7-4c0,0-0.1,0-0.1,0
		c-3.5,0-6.7,1.4-9.1,3.6c0-0.1,0-0.1,0-0.2c0-4.5-1.8-8.8-5-11.9c-3.2-3.2-7.5-4.9-12-4.9c-4.5,0-8.8,1.8-11.9,5
		c-3.2,3.2-4.9,7.5-4.9,12c0,4.5,1.8,8.8,5,11.9C81.6,96.1,85.8,97.8,90.3,97.8z M116.4,82.2C116.4,82.2,116.4,82.2,116.4,82.2
		c2.4,0,4.7,0.9,6.3,2.6c1.7,1.7,2.6,3.9,2.7,6.3c0,4.9-3.9,9-8.9,9c-2.4,0-4.6-0.9-6.3-2.6c-1.7-1.7-2.6-3.9-2.7-6.3
		C107.5,86.3,111.4,82.2,116.4,82.2z M81.7,72.4c2.3-2.3,5.3-3.6,8.5-3.6c0,0,0.1,0,0.1,0c3.2,0,6.2,1.2,8.5,3.5
		c2.3,2.3,3.6,5.3,3.6,8.5c0,0,0,0,0,0c0,3.2-1.2,6.3-3.5,8.6c-2.3,2.3-5.3,3.6-8.5,3.6c-3.2,0-6.3-1.2-8.6-3.5
		c-2.3-2.3-3.6-5.3-3.6-8.5C78.2,77.7,79.4,74.7,81.7,72.4z"/>
</g>
</svg>
