<?xml version="1.0" encoding="utf-8"?>
<!-- Generator: Adobe Illustrator 21.1.0, SVG Export Plug-In . SVG Version: 6.00 Build 0)  -->
<svg version="1.1" id="Layer_1" xmlns="http://www.w3.org/2000/svg" xmlns:xlink="http://www.w3.org/1999/xlink" x="0px" y="0px"
	 viewBox="0 0 200 200" style="enable-background:new 0 0 200 200;" xml:space="preserve">
<style type="text/css">
	.st0{fill:#404040;}
</style>
<g>
	<path class="st0" d="M108.9,63.6H91.1c-8.2,0-14.9,6.7-14.9,14.9v31.3c0,8.2,6.7,14.9,14.9,14.9h6.5v9.2c0,1.3,1.1,2.4,2.4,2.4
		s2.4-1.1,2.4-2.4v-9.2h6.5c8.2,0,14.9-6.7,14.9-14.9V78.5C123.8,70.3,117.1,63.6,108.9,63.6z M119,109.8c0,5.5-4.5,10.1-10.1,10.1
		H91.1c-5.5,0-10.1-4.5-10.1-10.1V78.5c0-5.5,4.5-10.1,10.1-10.1h17.8c5.5,0,10.1,4.5,10.1,10.1V109.8z"/>
	<path class="st0" d="M99,89.1c0-0.6,0.2-1.1,0.6-1.5c0.7-0.7,0.7-1.9,0-2.6c-0.7-0.7-1.9-0.7-2.6,0c-1.1,1.1-1.7,2.6-1.6,4.2
		c0.1,1.6,0.7,3,1.9,4.2c0.4,0.4,0.8,0.5,1.3,0.5c0.5,0,0.9-0.2,1.3-0.5c0.7-0.7,0.7-1.9,0-2.6C99.3,90.3,99,89.7,99,89.1z"/>
	<path class="st0" d="M107.6,82.5l-6.3-6.4c-0.3-0.3-0.8-0.5-1.3-0.5s-1,0.2-1.3,0.5l-6.3,6.4c0,0,0,0-0.1,0.1
		c-1.7,1.9-2.6,4.3-2.6,6.8c0,5.7,4.6,10.3,10.3,10.3c5.7,0,10.3-4.6,10.3-10.3C110.3,86.9,109.4,84.4,107.6,82.5
		C107.7,82.5,107.7,82.5,107.6,82.5z M100,96.1c-3.7,0-6.7-3-6.7-6.7c0-1.6,0.6-3.2,1.7-4.4l5-5.1l5,5.1c1.1,1.2,1.7,2.8,1.7,4.4
		C106.7,93.1,103.7,96.1,100,96.1z"/>
	<circle class="st0" cx="100" cy="109.5" r="3"/>
</g>
</svg>
