<?xml version="1.0" encoding="utf-8"?>
<!-- Generator: Adobe Illustrator 21.1.0, SVG Export Plug-In . SVG Version: 6.00 Build 0)  -->
<svg version="1.1" id="Layer_1" xmlns="http://www.w3.org/2000/svg" xmlns:xlink="http://www.w3.org/1999/xlink" x="0px" y="0px"
	 viewBox="0 0 200 200" style="enable-background:new 0 0 200 200;" xml:space="preserve">
<style type="text/css">
	.st0{fill:#404040;}
</style>
<g>
	<path class="st0" d="M126.4,70.7h-3.6v-4.4c0-1.3-1.1-2.4-2.4-2.4S118,65,118,66.3v4.4h-16.9v-4.4c0-1.3-1.1-2.4-2.4-2.4
		c-1.3,0-2.4,1.1-2.4,2.4v4.4h-3.8c-5.3,0-9.7,4.3-9.7,9.7v20.3l-0.7-0.7c-0.5-0.5-1.1-0.7-1.7-0.7c-0.7,0-1.3,0.3-1.7,0.7l-2,2.1
		L72,97.4l2.9-2.9c0.7-0.7,0.7-1.9,0-2.6c-0.7-0.7-1.9-0.7-2.6,0l-7.9,7.9c-0.7,0.7-0.7,1.9,0,2.6c0.4,0.4,0.8,0.5,1.3,0.5
		c0.5,0,0.9-0.2,1.3-0.5l2.4-2.4l4.7,4.7l-1.7,1.8c-0.5,0.5-0.7,1.1-0.7,1.7c0,0.7,0.3,1.3,0.7,1.7l4.3,4.3l-3.1,3.1
		c-0.7,0.7-0.7,1.9,0,2.6c0.4,0.4,0.8,0.5,1.3,0.5c0.5,0,0.9-0.2,1.3-0.5l3.1-3.1l9.1,9c1.3,1.3,3.1,2,4.8,2c0.6,0,1.3-0.1,1.9-0.3
		l2.7,2.7c0,0,0,0,0,0c0.5,0.5,1.1,0.7,1.7,0.7c0.3,0,0.6-0.1,0.9-0.2l5,5c0.4,0.4,0.8,0.5,1.3,0.5c0.5,0,0.9-0.2,1.3-0.5
		c0.7-0.7,0.7-1.9,0-2.6l-5-5c0-0.1,0.1-0.2,0.1-0.2c0.2-0.9,0-1.9-0.6-2.5l-2.3-2.3h26.2c5.3,0,9.7-4.3,9.7-9.7v-33
		C136.1,75.1,131.8,70.7,126.4,70.7z M75.9,108.2l4.6-4.7L84,107l-4.7,4.7L75.9,108.2z M90.9,123.1l-9-9l4.7-4.7l9,8.9
		c1.3,1.3,1.3,3.4,0.1,4.7C94.3,124.4,92.2,124.4,90.9,123.1z M131.3,113.4c0,2.7-2.2,4.8-4.8,4.8H99.7c-0.3-0.9-0.9-1.7-1.6-2.4
		l-8.9-8.8l3.2-3.2c0.7-0.7,0.7-1.9,0-2.6s-1.9-0.7-2.6,0l-2.1,2.1V80.4c0-2.7,2.2-4.8,4.8-4.8h3.8v2.8c0,1.3,1.1,2.4,2.4,2.4
		c1.3,0,2.4-1.1,2.4-2.4v-2.8H118v2.8c0,1.3,1.1,2.4,2.4,2.4s2.4-1.1,2.4-2.4v-2.8h3.6c2.7,0,4.8,2.2,4.8,4.8V113.4z"/>
	<path class="st0" d="M111.1,85.1h-3.6c-1.1,0-2,0.9-2,2v3.6c0,1.1,0.9,2,2,2h3.6c1.1,0,2-0.9,2-2v-3.6
		C113.1,86,112.2,85.1,111.1,85.1z"/>
	<path class="st0" d="M98.2,92.8h3.6c1.1,0,2-0.9,2-2v-3.6c0-1.1-0.9-2-2-2h-3.6c-1.1,0-2,0.9-2,2v3.6C96.1,91.9,97,92.8,98.2,92.8z
		"/>
	<path class="st0" d="M117.1,92.8h3.6c1.1,0,2-0.9,2-2v-3.6c0-1.1-0.9-2-2-2h-3.6c-1.1,0-2,0.9-2,2v3.6
		C115.1,91.9,116,92.8,117.1,92.8z"/>
	<path class="st0" d="M111.1,94.7h-3.6c-1.1,0-2,0.9-2,2v3.6c0,1.1,0.9,2,2,2h3.6c1.1,0,2-0.9,2-2v-3.6
		C113.1,95.6,112.2,94.7,111.1,94.7z"/>
	<path class="st0" d="M101.8,94.7h-3.6c-1.1,0-2,0.9-2,2v3.6c0,1.1,0.9,2,2,2h3.6c1.1,0,2-0.9,2-2v-3.6
		C103.8,95.6,102.9,94.7,101.8,94.7z"/>
	<path class="st0" d="M111.1,104.2h-3.6c-1.1,0-2,0.9-2,2v3.6c0,1.1,0.9,2,2,2h3.6c1.1,0,2-0.9,2-2v-3.6
		C113.1,105.1,112.2,104.2,111.1,104.2z"/>
	<path class="st0" d="M120.7,104.2h-3.6c-1.1,0-2,0.9-2,2v3.6c0,1.1,0.9,2,2,2h3.6c1.1,0,2-0.9,2-2v-3.6
		C122.7,105.1,121.8,104.2,120.7,104.2z"/>
	<path class="st0" d="M101.8,104.2h-3.6c-1.1,0-2,0.9-2,2v3.6c0,1.1,0.9,2,2,2h3.6c1.1,0,2-0.9,2-2v-3.6
		C103.8,105.1,102.9,104.2,101.8,104.2z"/>
	<path class="st0" d="M117.1,102.4h3.6c1.1,0,2-0.9,2-2v-3.6c0-1.1-0.9-2-2-2h-3.6c-1.1,0-2,0.9-2,2v3.6
		C115.1,101.5,116,102.4,117.1,102.4z"/>
</g>
</svg>
