<?xml version="1.0" encoding="utf-8"?>
<!-- Generator: Adobe Illustrator 21.1.0, SVG Export Plug-In . SVG Version: 6.00 Build 0)  -->
<svg version="1.1" id="Layer_1" xmlns="http://www.w3.org/2000/svg" xmlns:xlink="http://www.w3.org/1999/xlink" x="0px" y="0px"
	 viewBox="0 0 200 200" style="enable-background:new 0 0 200 200;" xml:space="preserve">
<style type="text/css">
	.st0{fill:#404040;}
</style>
<g>
	<path class="st0" d="M130.5,130.9l-18.2-31.5c-0.2-0.3-0.4-0.6-0.6-0.8V87h2.7c1.3,0,2.4-1.1,2.4-2.4v-7.9c0-0.9-0.5-1.7-1.2-2.1
		l-2.9-1.7v-6.6c0-1.3-1.1-2.4-2.4-2.4H75.5c-1.3,0-2.4,1.1-2.4,2.4v6.6l-2.9,1.7C69.5,75,69,75.8,69,76.7v7.9
		c0,1.3,1.1,2.4,2.4,2.4h2.7v39.5c0,5.3,4.7,9.7,10.5,9.7h6.5h10.1h26.2c1.2,0,2.4-0.7,3-1.8C131.1,133.3,131.1,131.9,130.5,130.9z
		 M73.9,78l2.9-1.7c0.7-0.4,1.2-1.2,1.2-2.1v-5.5h29.9v3.9H93.7c-1,0-1.8,0.8-1.8,1.8c0,1,0.8,1.8,1.8,1.8h15.2
		c0.1,0,0.1,0.1,0.1,0.1l2.9,1.7v4.1H73.9V78z M78.9,126.4V87h27.9v11.6c-0.2,0.2-0.4,0.5-0.6,0.8c0,0,0,0,0,0l-18.2,31.5
		c-0.1,0.1-0.1,0.3-0.2,0.4h-3.3C81.5,131.3,78.9,129.1,78.9,126.4z M101.2,131.3h-7.8l15.9-27.5l15.9,27.5H101.2z"/>
	<path class="st0" d="M107.2,112v9.5c0,1,0.8,1.8,1.8,1.8s1.8-0.8,1.8-1.8V112c0-1-0.8-1.8-1.8-1.8S107.2,111,107.2,112z"/>
	<circle class="st0" cx="109" cy="127.5" r="1.7"/>
</g>
</svg>
