<?xml version="1.0" encoding="utf-8"?>
<!-- Generator: Adobe Illustrator 21.1.0, SVG Export Plug-In . SVG Version: 6.00 Build 0)  -->
<svg version="1.1" id="Layer_1" xmlns="http://www.w3.org/2000/svg" xmlns:xlink="http://www.w3.org/1999/xlink" x="0px" y="0px"
	 viewBox="0 0 200 200" style="enable-background:new 0 0 200 200;" xml:space="preserve">
<style type="text/css">
	.st0{fill:#404040;}
</style>
<g>
	<path class="st0" d="M126.4,69.3H73.6c-5.3,0-9.7,4.3-9.7,9.7v42c0,5.3,4.3,9.7,9.7,9.7h52.8c5.3,0,9.7-4.3,9.7-9.7V79
		C136.1,73.6,131.8,69.3,126.4,69.3z M73.6,74.1h52.8c2.7,0,4.8,2.2,4.8,4.8v34l-10.2-5.3c-2.7-1.4-5.9-1.5-8.7-0.4l-8.1,3.2
		c-2.4,0.9-5.1,0.5-7.1-1.2l-9.1-7.8c-3.4-2.9-8.1-3.4-12-1.3l-7.4,4V79C68.7,76.3,70.9,74.1,73.6,74.1z M126.4,125.9H73.6
		c-2.7,0-4.8-2.2-4.8-4.8v-12.8l9.1-5c2.6-1.4,5.6-1.1,7.9,0.9l9.1,7.8c3,2.6,7.1,3.3,10.8,1.9l8.1-3.2c1.8-0.7,3.9-0.6,5.7,0.3
		l11.9,6.1v4C131.3,123.7,129.1,125.9,126.4,125.9z"/>
	<path class="st0" d="M114.1,96.4c4.1,0,7.5-3.4,7.5-7.5c0-4.1-3.4-7.5-7.5-7.5c-4.1,0-7.5,3.4-7.5,7.5
		C106.6,93,110,96.4,114.1,96.4z M114.1,85c2.1,0,3.9,1.7,3.9,3.9c0,2.1-1.7,3.9-3.9,3.9c-2.1,0-3.9-1.7-3.9-3.9
		C110.2,86.7,112,85,114.1,85z"/>
</g>
</svg>
