<?xml version="1.0" encoding="utf-8"?>
<!-- Generator: Adobe Illustrator 21.1.0, SVG Export Plug-In . SVG Version: 6.00 Build 0)  -->
<svg version="1.1" id="Layer_1" xmlns="http://www.w3.org/2000/svg" xmlns:xlink="http://www.w3.org/1999/xlink" x="0px" y="0px"
	 viewBox="0 0 200 200" style="enable-background:new 0 0 200 200;" xml:space="preserve">
<style type="text/css">
	.st0{fill:#404040;}
</style>
<g>
	<g>
		<path class="st0" d="M121.7,136.1H78.3c-1.3,0-2.4-1.1-2.4-2.4v-9.6c0-7.6,5-21.7,14.6-21.7h19c9.6,0,14.6,14.1,14.6,21.7v9.6
			C124.1,135,123,136.1,121.7,136.1z M80.7,131.2h38.6v-7.2c0-5.9-4-16.9-9.8-16.9h-19c-5.7,0-9.8,10.9-9.8,16.9V131.2z"/>
	</g>
	<g>
		<g>
			<g>
				<path class="st0" d="M100,97.8c-9.3,0-16.9-7.5-16.9-16.8c-0.1-9.3,7.5-17,16.8-17.1c0,0,0.1,0,0.1,0c9.3,0,16.9,7.5,16.9,16.8
					c0,0,0,0,0,0c0.1,9.3-7.5,17-16.8,17.1C100.1,97.8,100,97.8,100,97.8z M100,68.8C100,68.8,99.9,68.8,100,68.8
					c-6.8,0-12.1,5.5-12.1,12.2c0,6.6,5.5,12,12.1,12c0,0,0.1,0,0.1,0c6.7,0,12.1-5.5,12-12.2v0C112.1,74.1,106.6,68.8,100,68.8z"/>
			</g>
		</g>
	</g>
</g>
</svg>
