<?xml version="1.0" encoding="utf-8"?>
<!-- Generator: Adobe Illustrator 21.1.0, SVG Export Plug-In . SVG Version: 6.00 Build 0)  -->
<svg version="1.1" id="Layer_1" xmlns="http://www.w3.org/2000/svg" xmlns:xlink="http://www.w3.org/1999/xlink" x="0px" y="0px"
	 viewBox="0 0 200 200" style="enable-background:new 0 0 200 200;" xml:space="preserve">
<style type="text/css">
	.st0{fill:#404040;}
</style>
<g>
	<path class="st0" d="M93.7,75.6l4-3.7v38.6c0,1.3,1.1,2.4,2.4,2.4s2.4-1.1,2.4-2.4V71.9l4,3.7c0.5,0.4,1.1,0.7,1.7,0.7
		c0.6,0,1.3-0.3,1.8-0.8c0.9-1,0.9-2.5-0.1-3.4l-8-7.6c-0.9-0.9-2.4-0.9-3.3,0l-8,7.6c-1,0.9-1,2.4-0.1,3.4
		C91.2,76.5,92.8,76.5,93.7,75.6z"/>
	<path class="st0" d="M118.9,82.9h-5.3c-1.3,0-2.4,1.1-2.4,2.4c0,1.3,1.1,2.4,2.4,2.4h5.3c4,0,7.3,3.3,7.3,7.3v29
		c0,4-3.3,7.3-7.3,7.3H81.1c-4,0-7.3-3.3-7.3-7.3V95c0-4,3.3-7.3,7.3-7.3h5.2c1.3,0,2.4-1.1,2.4-2.4c0-1.3-1.1-2.4-2.4-2.4h-5.2
		C74.5,82.9,69,88.3,69,95v29c0,6.7,5.4,12.1,12.1,12.1h37.8c6.7,0,12.1-5.4,12.1-12.1V95C131,88.3,125.5,82.9,118.9,82.9z"/>
</g>
</svg>
