<?xml version="1.0" encoding="utf-8"?>
<!-- Generator: Adobe Illustrator 21.1.0, SVG Export Plug-In . SVG Version: 6.00 Build 0)  -->
<svg version="1.1" id="Layer_1" xmlns="http://www.w3.org/2000/svg" xmlns:xlink="http://www.w3.org/1999/xlink" x="0px" y="0px"
	 viewBox="0 0 200 200" style="enable-background:new 0 0 200 200;" xml:space="preserve">
<style type="text/css">
	.st0{fill:#404040;}
</style>
<g>
	<path class="st0" d="M90.1,97.7c0,0,0.1,0,0.1,0c4.5,0,8.8-1.8,11.9-5c3.2-3.2,4.9-7.5,4.9-12c0-4.5-1.8-8.8-5-11.9
		c-3.2-3.2-7.5-4.9-12-4.9c-4.5,0-8.8,1.8-11.9,5c-3.2,3.2-4.9,7.5-4.9,12c0,4.5,1.8,8.8,5,11.9C81.4,95.9,85.7,97.7,90.1,97.7z
		 M81.5,72.2c2.3-2.3,5.3-3.6,8.5-3.6c0,0,0.1,0,0.1,0c3.2,0,6.2,1.2,8.5,3.5c2.3,2.3,3.6,5.3,3.6,8.5c0,0,0,0,0,0
		c0,3.2-1.2,6.3-3.5,8.6c-2.3,2.3-5.3,3.6-8.5,3.6c-3.2,0-6.3-1.2-8.6-3.5c-2.3-2.3-3.6-5.3-3.6-8.5C78,77.6,79.3,74.5,81.5,72.2z"
		/>
	<polygon class="st0" points="107.1,80.6 107.1,80.6 107.1,80.6 	"/>
	<path class="st0" d="M128.2,104.6c0-0.1,0-0.2,0-0.2c0-5.3-4.3-9.7-9.7-9.7s-9.7,4.3-9.7,9.7c0,0.2,0,0.3,0.1,0.5
		c-0.5,0.1-0.9,0.3-1.3,0.5c-2.5-2.2-5.2-3.4-7.9-3.4h-19c-4.4,0-8.7,3-12.2,8.4c-2.8,4.4-4.6,9.6-4.6,13.4v10
		c0,1.3,1.1,2.4,2.4,2.4h45.4c0,0,0,0,0,0h14.8c5.3,0,9.7-4.3,9.7-9.7v-12.4C136.2,109.4,132.7,105.4,128.2,104.6z M118.6,98.3
		c3.3,0,6,2.7,6,6c0,0,0,0,0,0.1h-12.1c0,0,0,0,0-0.1C112.5,101,115.2,98.3,118.6,98.3z M68.7,123.8c0-5.3,5.8-17,11.9-17h19
		c1.4,0,2.9,0.6,4.2,1.7c-1.2,1.6-1.8,3.5-1.8,5.7v12.4c0,1.8,0.5,3.4,1.3,4.8H68.7V123.8z M131.3,126.5c0,2.7-2.2,4.8-4.8,4.8
		h-12.6h-2.1c-2.7,0-4.8-2.2-4.8-4.8v-12.4c0-1.4,0.6-2.7,1.6-3.6c0.9-0.8,2-1.2,3.2-1.2h14.8c2.7,0,4.8,2.2,4.8,4.8V126.5z"/>
	<path class="st0" d="M119.1,112.7c-2.5,0-4.5,2-4.5,4.5c0,1.8,1.1,3.4,2.7,4.1v4.4c0,1,0.8,1.8,1.8,1.8s1.8-0.8,1.8-1.8v-4.4
		c1.6-0.7,2.7-2.3,2.7-4.1C123.6,114.7,121.6,112.7,119.1,112.7z M119.1,116.3c0.5,0,0.9,0.4,0.9,0.9s-0.4,0.9-0.9,0.9
		c-0.5,0-0.9-0.4-0.9-0.9S118.6,116.3,119.1,116.3z"/>
</g>
</svg>
