<?xml version="1.0" encoding="utf-8"?>
<!-- Generator: Adobe Illustrator 21.1.0, SVG Export Plug-In . SVG Version: 6.00 Build 0)  -->
<svg version="1.1" id="Layer_1" xmlns="http://www.w3.org/2000/svg" xmlns:xlink="http://www.w3.org/1999/xlink" x="0px" y="0px"
	 viewBox="0 0 217.3 258.7" style="enable-background:new 0 0 217.3 258.7;" xml:space="preserve">
<style type="text/css">
	.st0{fill:none;stroke:#017E9D;stroke-width:20;stroke-linecap:round;stroke-linejoin:round;stroke-miterlimit:10;}
</style>
<g>
	<path class="st0" d="M177.8,39.5L177.8,39.5c38.4,38.4,38.4,100.6,0,139L108.3,248l-69.5-69.5c-38.4-38.4-38.4-100.6,0-139l0,0
		C77.2,1.1,139.4,1.1,177.8,39.5z"/>
	<path class="st0" d="M132.8,84.5L132.8,84.5c13.5,13.5,13.5,35.5,0,49l0,0c-13.5,13.5-35.5,13.5-49,0l0,0
		c-13.5-13.5-13.5-35.5,0-49l0,0C97.4,70.9,119.3,70.9,132.8,84.5z"/>
</g>
</svg>
